<svg xmlns="http://www.w3.org/2000/svg" width="36" height="36" viewBox="0 0 36 36"><defs><style>.a{fill:none;}.b{fill:#fff;}</style></defs><rect class="a" width="36" height="36"/><g transform="translate(4.5 4.5)"><path class="b" d="M24,15a9.957,9.957,0,0,1,1.5.135V7.905L14.25,3,3,7.905V15.27C3,22.08,7.8,28.455,14.25,30a13.749,13.749,0,0,0,2.4-.825A8.986,8.986,0,0,1,24,15Z" transform="translate(-3 -3)"/><path class="b" d="M19,13a6,6,0,1,0,6,6A6,6,0,0,0,19,13Zm0,2.07a1.68,1.68,0,1,1-1.68,1.68A1.687,1.687,0,0,1,19,15.07Zm0,8.055a4.087,4.087,0,0,1-3.36-1.755c.075-1.08,2.265-1.62,3.36-1.62s3.285.54,3.36,1.62A4.087,4.087,0,0,1,19,23.125Z" transform="translate(2 2)"/></g></svg>