<svg xmlns="http://www.w3.org/2000/svg" width="25.323" height="26.562" viewBox="0 0 25.323 26.562"><defs><style>.a{fill:#1e284c;}</style></defs><g transform="translate(0 0)"><path class="a" d="M25.323,26.562H0c0-.3.025-2.154.1-2.613a2.3,2.3,0,0,1,.2-.786,1.87,1.87,0,0,1,.98-.786C2.94,21.7,6.07,21.3,7.753,20.223a5.518,5.518,0,0,0,2.154-2.947A8.755,8.755,0,0,1,8.532,16a9.135,9.135,0,0,1-1.859-3.439,3.772,3.772,0,0,1-.883-1.375,3.812,3.812,0,0,1-.1-1.963c.057-.258.14-.438.294-.492a.47.47,0,0,1,.391.1,7.846,7.846,0,0,1,.1-4.81A5.714,5.714,0,0,1,7.85,1.766,6.267,6.267,0,0,1,10.991.2,7.811,7.811,0,0,1,12.563,0h.2a7.807,7.807,0,0,1,1.569.2A6.242,6.242,0,0,1,17.47,1.766a5.775,5.775,0,0,1,1.375,2.258,7.839,7.839,0,0,1,.1,4.81.481.481,0,0,1,.395-.1c.154.054.233.233.294.492a3.837,3.837,0,0,1-.1,1.963,3.772,3.772,0,0,1-.865,1.375A9.117,9.117,0,0,1,16.8,16a8.755,8.755,0,0,1-1.375,1.274,5.591,5.591,0,0,0,2.154,2.947C19.264,21.3,22.4,21.7,24.042,22.373a1.856,1.856,0,0,1,.98.786,2.218,2.218,0,0,1,.2.786C25.295,24.408,25.316,26.26,25.323,26.562Z" transform="translate(0 0)"/></g></svg>