<svg xmlns="http://www.w3.org/2000/svg" width="33" height="33" viewBox="0 0 33 33"><defs><style>.a{fill:none;}.b{fill:#fff;fill-rule:evenodd;}</style></defs><g transform="translate(-0.5 -0.5)"><rect class="a" width="33" height="33" transform="translate(0.5 0.5)"/><g transform="translate(2.75 4.125)"><path class="b" d="M26.75,3h-22A2.758,2.758,0,0,0,2,5.75V25a2.758,2.758,0,0,0,2.75,2.75h22A2.758,2.758,0,0,0,29.5,25V5.75A2.758,2.758,0,0,0,26.75,3ZM13,22.25H6.125V19.5H13Zm0-5.5H6.125V14H13Zm0-5.5H6.125V8.5H13Zm6.627,8.25L15.75,15.595l1.939-1.939,1.939,1.952,4.359-4.359L25.939,13.2Z" transform="translate(-2 -3)"/></g></g></svg>