<svg xmlns="http://www.w3.org/2000/svg" xmlns:xlink="http://www.w3.org/1999/xlink" width="1949.497" height="284.238" viewBox="0 0 1949.497 284.238"><defs><style>.a{opacity:0.61;}.b{fill:none;stroke:#7efad3;stroke-width:3px;opacity:0.72;}.c{fill:#fff;}.d{filter:url(#a);}</style><filter id="a" x="0" y="7.152" width="1949.497" height="277.086" filterUnits="userSpaceOnUse"><feOffset dy="9" input="SourceAlpha"/><feGaussianBlur stdDeviation="3" result="b"/><feFlood flood-color="#6dd7ff" flood-opacity="0.741"/><feComposite operator="in" in2="b"/><feComposite in="SourceGraphic"/></filter></defs><g class="a" transform="translate(18.483 -26)"><g class="d" transform="matrix(1, 0, 0, 1, -18.48, 26)"><path class="b" d="M-9,202c5.88,2-15,98,58,88S177.376,57,239.764,56,358.988,385.667,468.739,237.333s200.8,53.149,290.383,0C848.621,184.233,880.305,61,932.241,58s145.028,196.667,274.377,198,175.079-57.333,209.05-116,54.875-104,99.3-105.333S1611.708,117.39,1675.02,182c32.9,33.579,58.474,56.9,79.864,69.657,2.669,1.592,5.27,3.014,8.032,4.375,31.526,15.536,53.417,4.368,77.084-35.365,40.5-68,80.667-150,80.667-150" transform="translate(18.48 -26)"/></g><circle class="c" cx="9" cy="9" r="9" transform="translate(678 228)"/><circle class="c" cx="9" cy="9" r="9" transform="translate(901 59)"/><circle class="c" cx="9" cy="9" r="9" transform="translate(1195 246)"/><circle class="c" cx="9" cy="9" r="9" transform="translate(1507 26)"/><circle class="c" cx="9" cy="9" r="9" transform="translate(1671 177)"/><circle class="c" cx="9" cy="9" r="9" transform="translate(1907 66)"/><circle class="c" cx="9" cy="9" r="9" transform="translate(229 46)"/><circle class="c" cx="9" cy="9" r="9" transform="translate(466 220)"/></g></svg>