<svg xmlns="http://www.w3.org/2000/svg" width="180.039" height="180.131" viewBox="0 0 180.039 180.131"><defs><style>.a{fill:#fff;stroke:#fff;}.b{fill:#e8e8e8;stroke:#e8e8e8;}.c{fill:#e1e4e4;stroke:#e1e4e4;}.d,.j{fill:#9cbbc2;}.d{stroke:#9cbbc2;}.e{fill:#f36c71;stroke:#f36c71;}.f{fill:#c25b60;stroke:#c25b60;}.g,.h{fill:#5b4551;}.g{stroke:#5b4551;}.i,.m{fill:#7f9da4;}.i{stroke:#7f9da4;}.k,.n{fill:#b0c3c4;}.l{fill:#6d7296;}.n{stroke:#b0c3c4;}</style></defs><g transform="translate(-507.387 -85.497)"><path class="a" d="M95.781,178.591c-2.995.917-6.071.5-9.075.382a85.825,85.825,0,0,1-27.942-5.435c-29.331-11.392-48-32.369-56.246-62.68C-8.6,63.792,18.147,19.439,60.317,4.923A87.76,87.76,0,0,1,93.5.109a89.542,89.542,0,0,1,82.74,67.547,90.79,90.79,0,0,1,1.614,35.679,4.854,4.854,0,0,1-.4,1.008c-1.471-.478-2.312-1.767-3.343-2.785Q152.228,79.692,130.357,57.8a35.4,35.4,0,0,0-6.247-4.977c-.716-.688-.9-1.848-1.949-2.25a4.332,4.332,0,0,0-3.6-2.173c-2.016-.1-4,0-5.45,1.562a5.017,5.017,0,0,1-4.3,1.495c-1.342-.067-2.689-.062-4.031,0a5.092,5.092,0,0,1-4.3-1.462,6.53,6.53,0,0,0-8.693-.048,5.106,5.106,0,0,1-4.3,1.514c-1.667-.072-3.42-.038-5.13,0a3.325,3.325,0,0,1-2.651-.955,7.536,7.536,0,0,0-1.1-.955,6.548,6.548,0,0,0-5.6-.955,4.9,4.9,0,0,0-3.917,3.463C67.806,54.922,68,57.544,70.524,59.7c.535.478,1.118.874,1.676,1.309l.755.659-.033-.043c2.039,2.89,4.776,5.111,7.265,7.57.387.382,1.089.439,1.648.65a30.449,30.449,0,0,0-7.346,9.577A41.955,41.955,0,0,0,61.3,82.075,34.495,34.495,0,0,0,46.327,93.453a35.819,35.819,0,0,0-7.246,21.1c-.607.115-1.342.244-1.361.955-.072,2.68-.057,5.364-.038,8.043a1.1,1.1,0,0,0,1.142,1.156c.955.048,1.949.048,2.923.062q4.934.062,9.877.115a2.93,2.93,0,0,1-2.388.65h-8.8c-.549,0-1.251-.224-1.557.822.855.874,1.786,1.829,2.727,2.77q22.955,22.955,45.853,45.948c2.183,2.2,4.3,3.955,7.585,3.343a2.068,2.068,0,0,1,.74.172Z" transform="translate(508.028 85.993)"/><path class="b" d="M138.331,236.324a2.068,2.068,0,0,0-.716-.139c-3.3.6-5.4-1.161-7.585-3.343q-22.845-23.055-45.853-45.948c-.955-.955-1.872-1.911-2.727-2.77.306-1.046,1.008-.817,1.557-.822h8.8a2.921,2.921,0,0,0,2.388-.65l-.067-.172c2.049,0,4.112.344,6.138-.244.993-1.958.306-4.05.478-6.071a22.921,22.921,0,0,0-.033-2.56c0-.955-.716-1.146-1.466-1.271A17.744,17.744,0,0,1,99.657,168a18.145,18.145,0,0,1,11.812-12.418,44.846,44.846,0,0,1,4.944-1.17c.922.712,1.185,1.834,1.7,2.789a23.434,23.434,0,0,0,38.908,3.62c.53-.659,1.127-1.27,1.691-1.911l12.519.191c.244.736-.172,1.686.721,2.211a2.924,2.924,0,0,0,.955.406q5.23.057,10.455.024c.3,0,.6-.32.908-.478a7.834,7.834,0,0,0,.267-1.433q0-14.329-.076-28.7a1.6,1.6,0,0,0-1.552-.74c-3.162.038-6.324.091-9.491.139-.745-.033-1.6-.368-1.944.707-.086.669-.177,1.337-.267,2.006l-2.2.167h-5.049l-5.364.033a6.792,6.792,0,0,1-.764-.764,24.049,24.049,0,0,0-12.815-9.075q-.072-3.855-.139-7.7c1.958-.048,3.917-.038,5.865-.162,2.044-.134,3.792.177,5.254,1.858a4.867,4.867,0,0,0,4.337,1.538c2.794-.4,5.063-1.667,6.028-4.643a8.631,8.631,0,0,0,.272-3.969,35.4,35.4,0,0,1,6.271,5q21.866,21.9,43.77,43.766c1.022,1.017,1.863,2.288,3.343,2.785a29.97,29.97,0,0,1-1.356,7.542,89.556,89.556,0,0,1-66.582,64.839A56.083,56.083,0,0,1,138.331,236.324Z" transform="translate(465.478 28.259)"/><path class="c" d="M182.13,137.336a24.049,24.049,0,0,1,12.815,9.075,6.793,6.793,0,0,0,.764.764,18.886,18.886,0,0,0,.879,2.006,21.714,21.714,0,0,1,2.713,10.169,21.126,21.126,0,0,1-2.025,9.954c-.521,1.1-.984,2.221-1.471,3.343-.564.63-1.161,1.242-1.691,1.911a23.434,23.434,0,0,1-38.908-3.62c-.516-.955-.779-2.078-1.7-2.789l-.989-5.617a28.612,28.612,0,0,1,1.61-11.654,30.45,30.45,0,0,1,7.346-9.577,33.44,33.44,0,0,1,7.847-3.821,33.364,33.364,0,0,1,6.758-.74A34.244,34.244,0,0,1,182.13,137.336Zm-6.405,37.652c6.749.664,15.127-5.612,15.179-14.912a15.3,15.3,0,0,0-15.284-15.284c-7.747,0-14.916,7.3-15.069,15-.148,7.967,8.23,15.991,15.174,15.174Z" transform="translate(428.376 14.574)"/><path class="d" d="M117.233,166.24a28.858,28.858,0,0,0-1.61,11.654,20.054,20.054,0,0,0-4.012.076c-8.363,1.71-14.114,6.587-17.352,14.506a20.715,20.715,0,0,0-1.4,8.927H81.85A35.832,35.832,0,0,1,89.1,180.3a34.494,34.494,0,0,1,14.945-11.392A41.956,41.956,0,0,1,117.233,166.24Z" transform="translate(465.269 -0.842)"/><path class="e" d="M144.66,104.825a4.871,4.871,0,0,1,3.917-3.463,6.548,6.548,0,0,1,5.6.955,7.537,7.537,0,0,1,1.1.955,3.27,3.27,0,0,0,2.651.955c1.71,0,3.425-.062,5.13,0a5.1,5.1,0,0,0,4.3-1.514,6.53,6.53,0,0,1,8.693.048,5.112,5.112,0,0,0,4.3,1.462c1.342-.062,2.689-.067,4.031,0a5.017,5.017,0,0,0,4.3-1.5c1.433-1.538,3.434-1.662,5.45-1.562a4.327,4.327,0,0,1,3.6,2.178,12.3,12.3,0,0,1-.072,1.433c-.755,4.729-4.647,6.453-8.478,3.6a6.032,6.032,0,0,0-4.022-1.28c-1.944.043-3.9.038-5.846,0a6.876,6.876,0,0,0-5.044,1.514c-1.576,1.342-3.883,2.14-5.641.358-1.911-1.911-4.06-1.911-6.381-1.868-1.462.029-2.928,0-4.389,0-2.068,0-3.931.057-5.732,1.6-2.135,1.829-4.38,1.433-6.271-.224C144.655,107.5,144.846,106.124,144.66,104.825Z" transform="translate(432.459 33.195)"/><path class="f" d="M143.816,107.353c.186,1.3,0,2.67,1.18,3.7,1.911,1.653,4.136,2.054,6.271.224,1.815-1.548,3.678-1.629,5.732-1.6,1.462,0,2.928.029,4.389,0,2.321-.048,4.49-.053,6.381,1.868,1.758,1.782,4.055.989,5.641-.358a6.867,6.867,0,0,1,5.044-1.514c1.949.038,3.9.043,5.846,0a6.032,6.032,0,0,1,4.022,1.28c3.821,2.866,7.723,1.132,8.478-3.6a12.3,12.3,0,0,0,.072-1.433c1.051.4,1.232,1.557,1.949,2.245a8.63,8.63,0,0,1-.272,3.969c-.955,2.976-3.234,4.241-6.028,4.643a4.867,4.867,0,0,1-4.337-1.538,5.815,5.815,0,0,0-5.254-1.858c-1.949.124-3.907.115-5.865.162-.659.072-1.017.592-1.481.955-3.229,2.632-6.238,2.637-9.5,0-.478-.377-.85-.869-1.495-.955-2.522-.053-5.044-.086-7.566-.153a3.062,3.062,0,0,0-2.6.955,7.627,7.627,0,0,1-6.792,2.584l.033.043a.855.855,0,0,0-.755-.659c-.559-.435-1.142-.845-1.677-1.309C142.727,112.841,142.545,110.257,143.816,107.353Z" transform="translate(433.304 30.668)"/><path class="g" d="M152.65,125.106a7.6,7.6,0,0,0,6.792-2.584,3.062,3.062,0,0,1,2.6-.955c2.522.067,5.044.1,7.566.148q-.1,3.9-.2,7.795a34.513,34.513,0,0,0-7.848,3.821c-.559-.21-1.261-.267-1.648-.65C157.426,130.208,154.689,127.972,152.65,125.106Z" transform="translate(428.286 22.505)"/><path class="h" d="M151.14,127.69a.855.855,0,0,1,.755.659Z" transform="translate(429.074 19.296)"/><path class="d" d="M283.268,183.862c-.306.167-.607.478-.908.478q-5.23.033-10.455-.024a2.923,2.923,0,0,1-.955-.406c.74-.177,1.433-.444,1.471-1.342.048-.726.062-1.457.062-2.183q0-13.3-.024-26.595h8.855v28.491C281.3,183.628,282.213,183.838,283.268,183.862Z" transform="translate(366.49 5.662)"/><path class="i" d="M243.086,183.778c.478-1.118.955-2.24,1.471-3.343a21.126,21.126,0,0,0,2.025-9.954,21.714,21.714,0,0,0-2.713-10.169,18.874,18.874,0,0,1-.879-2.006l5.364-.033c.6,2.971,2.087,5.693,2.388,8.741a.368.368,0,0,0,.573.272c.2-.1.478-.263.478-.435.544-2.866,1.056-5.708,1.571-8.564l2.2-.167v25.845Z" transform="translate(381.095 3.4)"/><path class="i" d="M104.853,214.081a20.715,20.715,0,0,1,1.4-8.927c3.238-7.919,8.989-12.8,17.352-14.506a21.173,21.173,0,0,1,4.012-.076l.989,5.617a45.624,45.624,0,0,0-4.944,1.17,18.072,18.072,0,0,0-11.812,12.418,16.734,16.734,0,0,0-.411,4.332h-6.587Z" transform="translate(453.276 -13.52)"/><path class="j" d="M104.94,239.87h6.567c.75.124,1.433.31,1.466,1.27a22.93,22.93,0,0,1,.033,2.56c-.177,2.02.511,4.112-.478,6.071-2.025.587-4.089.258-6.138.244,0-2.259-.086-4.528.072-6.778A3.759,3.759,0,0,0,104.94,239.87Z" transform="translate(453.208 -39.304)"/><path class="i" d="M187.74,129.625q.091-3.9.2-7.795c.645.1,1.022.592,1.495.955,3.262,2.637,6.271,2.632,9.5,0,.478-.377.822-.9,1.481-.955q.072,3.854.139,7.7a45.7,45.7,0,0,0-6.052-.65A33.366,33.366,0,0,0,187.74,129.625Z" transform="translate(409.956 22.357)"/><path class="k" d="M269.4,181.635V155.79c.091-.669.181-1.337.267-2.006l2.011-.134-.043.076q0,13.3.024,26.595c0,.726,0,1.433-.062,2.183-.057.9-.731,1.165-1.471,1.342C269.209,183.321,269.644,182.37,269.4,181.635Z" transform="translate(367.299 5.735)"/><path class="j" d="M259.31,158.464c-.516,2.866-1.027,5.732-1.571,8.564-.033.172-.3.339-.478.435a.368.368,0,0,1-.573-.272c-.325-3.047-1.815-5.77-2.388-8.741Z" transform="translate(375.187 3.228)"/><path class="l" d="M285.063,152.887l-2.164.048h-8.855l.043-.076a3.759,3.759,0,0,0-.067-.573c3.167-.048,6.329-.1,9.491-.138A1.6,1.6,0,0,1,285.063,152.887Z" transform="translate(364.886 6.526)"/><path class="m" d="M271.874,152.368c.029.186.048.377.067.573l-2.011.134C270.284,152,271.138,152.334,271.874,152.368Z" transform="translate(367.022 6.444)"/><path class="n" d="M184.568,183.771c-6.945.817-15.322-7.207-15.16-15.189.153-7.7,7.322-14.988,15.069-15a15.331,15.331,0,0,1,15.284,15.284C199.694,178.14,191.316,184.435,184.568,183.771Z" transform="translate(419.533 5.772)"/></g></svg>