<svg xmlns="http://www.w3.org/2000/svg" width="180.032" height="179.968" viewBox="0 0 180.032 179.968"><defs><style>.a{fill:#fff;stroke:#fff;}.b{fill:#e8e8e8;stroke:#e8e8e8;}.c{fill:#e1e4e4;stroke:#e1e4e4;}.d{fill:#f1f2f2;stroke:#f1f2f2;}.e,.f{fill:#b0c3c4;}.e{stroke:#b0c3c4;}.g,.i{fill:#c4cdce;}.h{fill:#f36c71;stroke:#f36c71;}.i{stroke:#c4cdce;}.j{fill:#3498ae;stroke:#3498ae;}</style></defs><g transform="translate(-264.419 -85.498)"><path class="a" d="M103.214,177.666a10.373,10.373,0,0,1-2.074.64,103.989,103.989,0,0,1-19.4.373A86.588,86.588,0,0,1,46.858,168.2c-24.3-13.661-39.794-34.065-45.137-61.531C-6.77,63.009,17.06,23.329,54.059,7.3A88.61,88.61,0,0,1,80.952.45a86.192,86.192,0,0,1,49.366,9.466c24.967,13.126,40.506,33.692,46.79,61.163a91.362,91.362,0,0,1,1.634,25.56,9.756,9.756,0,0,1-.425,1.754,9.667,9.667,0,0,1-3.049-2.595q-18.311-18.249-36.6-36.545c-.693-.693-1.4-1.371-2.083-2.064a2.289,2.289,0,0,0-1.653-.664c-1.094-3.206-3.45-4.4-6.69-4.4-5.92,0-11.836-.076-17.757-.124a5.017,5.017,0,0,0-.588-.9q-7.407-7.45-14.837-14.87a3.111,3.111,0,0,0-1.883-1.046,15.465,15.465,0,0,0-.956-1.553c-2.036-2.647-4.927-3.474-7.736-2.255a6.69,6.69,0,0,0-4.019,7.082,1.175,1.175,0,0,0,1.242,1.1c1.486.148,1.911-.162,2.189-1.649a10.414,10.414,0,0,1,.33-1.778,2.953,2.953,0,0,1,2.91-1.792A2.92,2.92,0,0,1,89.859,36.4a10.623,10.623,0,0,1,.229,2.528q0,5.1,0,10.216c-1.142,0-2.279,0-3.417-.053a1.185,1.185,0,0,1-1.08-.688,8.573,8.573,0,0,0,1.434-.1.822.822,0,0,0,.631-1.1c-.091-.4-.373-.717-.745-.636a8.123,8.123,0,0,1-4.3-.038,1.027,1.027,0,0,0-1.171.674,1.075,1.075,0,0,0,.349,1.29l.55.478c-1.873.612-1.878.612-2,2.327a7.053,7.053,0,0,0,0,.712h0c-1.338.038-2.676.1-4.014.105H55.861c-1.18,0-2.456-.33-3.493.6a5.968,5.968,0,0,0-1.352.478,4.881,4.881,0,0,0-2.27,5.352,4.623,4.623,0,0,0,3.823,3.9,10.844,10.844,0,0,1,1.663.679c.478,5.978,3.579,10.46,8.095,14.154A38.58,38.58,0,0,0,73.794,83.6c1.242.444,2.623.583,3.67,1.51-.033.855-.091,1.711-.091,2.566v60.948c.081,1.634.33,1.964,1.935,1.959,6.241,0,12.476-.062,18.717-.105l8.056.043c-.817,1.066-2,.717-3.049.722-7.564.029-15.124,0-22.683.048-.54,0-1.233-.287-1.658.593a19.69,19.69,0,0,0,3.144,3.393c6.365,6.4,12.763,12.763,19.114,19.161C101.91,175.368,103.148,176.123,103.214,177.666Z" transform="translate(264.998 85.999)"/><path class="b" d="M189.26,239.416c-.053-1.543-1.29-2.289-2.212-3.216-6.365-6.4-12.763-12.763-19.114-19.161a19.691,19.691,0,0,1-3.144-3.393c.425-.879,1.118-.588,1.658-.593,7.559-.029,15.119,0,22.683-.048,1.051,0,2.232.344,3.049-.722.029-.731.081-1.462.081-2.189V149.41c0-.851-.062-1.7-.1-2.552,1.018-.956,2.389-1.1,3.632-1.534a38.648,38.648,0,0,0,11.416-6.245c4.659-3.713,7.645-8.333,8.3-14.335a13.57,13.57,0,0,1,1.386-.478c3.2-.76,4.219-2.991,4.114-6.006a2.289,2.289,0,0,1,1.653.664c.688.693,1.391,1.371,2.083,2.064q18.3,18.292,36.6,36.574c.956.956,1.739,2.074,3.049,2.595-.072,6.049-1.548,11.85-3.307,17.565a89.628,89.628,0,0,1-65.321,60.753C193.618,238.967,191.5,239.76,189.26,239.416Z" transform="translate(178.952 24.249)"/><path class="c" d="M182.608,243.508c-6.241.043-12.476.1-18.717.105-1.606,0-1.854-.325-1.935-1.959-.029-.612,0-1.223,0-1.835V180.705c0-.855.057-1.711.091-2.566a15.56,15.56,0,0,1,2.169.134,52.434,52.434,0,0,0,12.175,1.347c2.059-.072,4.119,0,6.178-.024,0,1.467.048,2.939.048,4.406Z" transform="translate(180.439 -7.018)"/><path class="d" d="M157.281,155.5c-2.059,0-4.119-.048-6.178.024a52.431,52.431,0,0,1-12.175-1.348,15.563,15.563,0,0,0-2.169-.134c-1.046-.927-2.427-1.066-3.67-1.51a38.581,38.581,0,0,1-11.468-6.312c-4.516-3.694-7.6-8.176-8.09-14.154,1.218-.024,2.437-.072,3.651-.072h54.091c-.6,8.778-4.086,15.9-11.822,20.585-.521.315-1.075.573-1.572.922a1.386,1.386,0,0,0-.478,1.309A4.7,4.7,0,0,1,157.281,155.5Z" transform="translate(205.718 17.074)"/><path class="c" d="M165.17,119.875H111.093c-1.214,0-2.432.048-3.651.072a11.1,11.1,0,0,0-1.668-.679,4.623,4.623,0,0,1-3.823-3.9,4.881,4.881,0,0,1,2.27-5.352,5.969,5.969,0,0,1,1.352-.478l22.387.081H132a1.687,1.687,0,0,0,1.543-.793h22.865l.033-.043c.363.827,1.1.851,1.844.855h6.957c.726,0,1.505-.024,1.983.679,1.276,1.878,2.212,3.823,1.1,6.135l-.956,1.978Z" transform="translate(211.82 29.199)"/><path class="e" d="M205.09,179.557c.053-.225.1-.454.139-.683,2.055-.11,4.143.139,6.135-.693a5.309,5.309,0,0,1,1.816-.076c.033.851.1,1.7.1,2.552v60.686c0,.726-.053,1.457-.081,2.189l-8.056-.043V183.963C205.138,182.5,205.1,181.024,205.09,179.557Z" transform="translate(157.909 -6.978)"/><path class="f" d="M227.053,118.4l.956-1.978c1.109-2.313.172-4.258-1.1-6.135-.478-.7-1.257-.679-1.983-.679h-6.957c-.741,0-1.481-.029-1.844-.855a43.2,43.2,0,0,0,7.206.029c5.92.048,11.836.139,17.757.124,3.249,0,5.605,1.19,6.69,4.4.105,3.015-.913,5.256-4.114,6.006a13.11,13.11,0,0,0-1.381.478,6.146,6.146,0,0,0-3.507-.655h-9.418C228.515,119.133,227.646,119.2,227.053,118.4Z" transform="translate(152.15 29.214)"/><path class="c" d="M177.951,82.834c0-3.407.029-6.814,0-10.216a10.624,10.624,0,0,0-.229-2.528A2.92,2.92,0,0,0,175,68.036a2.953,2.953,0,0,0-2.91,1.792,10.42,10.42,0,0,0-.33,1.778c-.272,1.486-.7,1.8-2.188,1.649a1.175,1.175,0,0,1-1.2-1.1,6.69,6.69,0,0,1,4.019-7.082c2.81-1.219,5.7-.392,7.736,2.255a15.458,15.458,0,0,1,.956,1.553c.115,1.434.3,2.867.32,4.272.057,3.221.038,6.446.048,9.667A2.867,2.867,0,0,1,177.951,82.834Z" transform="translate(177.116 52.311)"/><path class="b" d="M195.408,87.579c0-3.221,0-6.446-.048-9.667-.024-1.434-.206-2.867-.32-4.272a3.111,3.111,0,0,1,1.854,1.037l14.851,14.87a5.016,5.016,0,0,1,.588.9,43.194,43.194,0,0,1-7.206-.029l-.033.043c-.053-2.513-.053-2.509-2.361-2.867a5.531,5.531,0,0,1-.683-.182,20.35,20.35,0,0,0,1.859-.994c.444-.291.272-1.4-.225-1.52a14.474,14.474,0,0,0-5.309-.029c-.229.029-.535.507-.559.793a1.075,1.075,0,0,0,.43.889,8.733,8.733,0,0,0,1.749.287,1.386,1.386,0,0,1-1.434.784C197.506,87.636,196.454,87.6,195.408,87.579Z" transform="translate(163.157 47.547)"/><path class="g" d="M181.368,101.947c1.051,0,2.1.057,3.149.062a1.386,1.386,0,0,0,1.434-.784c.8-.215,1.4.258,2.055.573a5.532,5.532,0,0,0,.683.182c2.308.339,2.308.334,2.361,2.867H168.16a7.057,7.057,0,0,1,0-.712c.124-1.715.129-1.715,2-2.327,1.137.158,2.055-.956,3.24-.569a1.185,1.185,0,0,0,1.08.688c1.137.029,2.275.038,3.417.053a2.867,2.867,0,0,0,3.474-.033Z" transform="translate(177.197 33.179)"/><path class="g" d="M137.654,108.84a1.687,1.687,0,0,1-1.529.793h-4.038l-22.387-.081c1.037-.956,2.313-.6,3.493-.6,6.819-.029,13.638,0,20.461,0C134.978,108.94,136.316,108.878,137.654,108.84Z" transform="translate(207.718 29.167)"/><path class="h" d="M174.467,99.232c-1.185-.387-2.1.726-3.24.569l-.545-.478a1.075,1.075,0,0,1-.349-1.29,1.027,1.027,0,0,1,1.171-.674,8.123,8.123,0,0,0,4.3.038c.373-.081.655.239.745.636a.822.822,0,0,1-.631,1.1A8.571,8.571,0,0,1,174.467,99.232Z" transform="translate(176.103 35.173)"/><path class="i" d="M221.416,128.94c.588.8,1.457.736,2.3.736h9.418a6.185,6.185,0,0,1,3.507.655c-.636,6.016-3.641,10.637-8.3,14.335a38.649,38.649,0,0,1-11.416,6.245c-1.238.435-2.614.569-3.632,1.534a4.974,4.974,0,0,0-1.816.076c-1.993.831-4.081.583-6.135.693a1.386,1.386,0,0,1,.478-1.309c.478-.349,1.051-.607,1.572-.922,7.736-4.683,11.22-11.807,11.822-20.585Z" transform="translate(157.787 18.672)"/><path class="j" d="M205.053,99.467c-.65-.315-1.257-.788-2.055-.573a8.735,8.735,0,0,1-1.749-.287,1.075,1.075,0,0,1-.43-.889c.024-.287.33-.765.559-.793a14.475,14.475,0,0,1,5.309.029c.478.115.669,1.228.225,1.52A20.36,20.36,0,0,1,205.053,99.467Z" transform="translate(160.139 35.511)"/></g></svg>