<svg xmlns="http://www.w3.org/2000/svg" width="184.263" height="184.155" viewBox="0 0 184.263 184.155"><defs><style>.a,.i{fill:#c4cdce;}.b{fill:#5b4551;stroke:#5b4551;}.c{fill:#fefffe;stroke:#fefffe;}.d{fill:#f36c71;stroke:#f36c71;}.e{fill:#fff;stroke:#fff;}.f{fill:#e8e8e8;stroke:#e8e8e8;}.g{fill:#e6e9e9;stroke:#e6e9e9;}.h{fill:#65becd;stroke:#65becd;}.i{stroke:#c4cdce;}.j{fill:#44b4a9;stroke:#44b4a9;}.k{fill:#69797e;}.l{fill:#ccd3d3;}.m{fill:#3498ae;stroke:#3498ae;}.n{fill:#3eafc7;stroke:#3eafc7;}</style></defs><g transform="translate(-750.435 -84.442)"><path class="a" d="M265.069,84.394l-.489-.675C265.049,83.7,265.191,83.949,265.069,84.394Z" transform="translate(615.749 42.219)"/><path class="b" d="M173.561,97.518h14.157a1.125,1.125,0,0,1,1.193,1.169c.044,2,.049,4,.039,6a1.3,1.3,0,0,1-1.355,1.467h-13.12a1.267,1.267,0,0,1-1.359-1.027A23.814,23.814,0,0,1,173.561,97.518Z" transform="translate(662.561 35.169)"/><path class="c" d="M234.95,101.894a4.44,4.44,0,1,1-4.259-4.44A4.695,4.695,0,0,1,234.95,101.894Z" transform="translate(635.427 35.203)"/><path class="c" d="M213.074,103.449c-1.76-.034-2.655-1.056-2.553-2.9.088-1.589,1.438-3.051,2.743-2.968a3.181,3.181,0,0,1,2.558,3.164A2.378,2.378,0,0,1,213.074,103.449Z" transform="translate(643.376 35.139)"/><path class="d" d="M248.69,97.382c.078-.851.088-1.467.2-2.064a1.164,1.164,0,0,1,2.181-.073,9.923,9.923,0,0,1-.039,4.357.939.939,0,0,1-1.178.6c-.323-.073-.8-.293-.856-.533a19,19,0,0,1-.308-2.289Z" transform="translate(623.868 36.698)"/><path class="e" d="M102.95,182.215a7.149,7.149,0,0,1-2.934.621c-13.516.914-26.719-.455-39.551-5.086A91.64,91.64,0,0,1,49.781,10.055,89.576,89.576,0,0,1,79.36.828a91.552,91.552,0,0,1,99.929,64.148A96.527,96.527,0,0,1,183.25,90.5a29.152,29.152,0,0,1-.225,2.983c-1.467-.328-2.22-1.575-3.174-2.523q-23.37-23.311-46.676-46.646c-.978-.978-2.01-1.863-3.017-2.792l-.288.093c.122-.445,0-.689-.489-.675-1.247-.054-2.494-.161-3.746-.161H59.874c-4.836,0-4.308-.489-4.308,4.514v84.554c0,1.125,0,2.254.054,3.379a1.614,1.614,0,0,0,.714,1.252,3.164,3.164,0,0,0,1.12,1.863l9.237,9.066a7.574,7.574,0,0,0,2.333,2.054,10.391,10.391,0,0,0,2.665,3.1q14.274,14.308,28.563,28.6A11.138,11.138,0,0,1,102.95,182.215Z" transform="translate(750.948 84.997)"/><path class="f" d="M189.025,84.91c1.007.929,2.049,1.824,3.017,2.792l46.676,46.646c.954.949,1.707,2.2,3.174,2.523a40.338,40.338,0,0,1-.543,9.712,91.635,91.635,0,0,1-56.7,73.4,95.172,95.172,0,0,1-19.472,5.433,27.445,27.445,0,0,1-3.364.181,11.34,11.34,0,0,0-2.7-3.071q-14.264-14.308-28.563-28.6a10.334,10.334,0,0,1-2.665-3.091,42.376,42.376,0,0,0,7.472.142,7.57,7.57,0,0,0,4.479-1.663,1.624,1.624,0,0,0-.284-2.778,6,6,0,0,0-2.841-.817c-1.619-.088-3.237-.284-4.851-.3a27.842,27.842,0,0,0-3.716.284,2.745,2.745,0,0,0-2.592,3.076l-9.237-9.066a3.164,3.164,0,0,1-1.12-1.853l1.853-.2a1.55,1.55,0,0,0,.3.557c0,.621.059,1.33.768,1.467a15.16,15.16,0,0,0,5.418,0c.714-.127.743-.846.748-1.467a1.58,1.58,0,0,0,.333-.567c4.367.029,8.734.044,13.105.088a13.086,13.086,0,0,1,4.807.455,1.878,1.878,0,0,0,.934,2.235,8.254,8.254,0,0,0,4.577,1.467c1.624.029,3.247,0,4.89,0a7.236,7.236,0,0,1,.934.626c2.024,1.844,1.956,3.712-.269,5.213a26.039,26.039,0,0,1-3.335,1.7,9.319,9.319,0,0,0-2.846,1.785,1.726,1.726,0,0,0-.347,2.073,6.047,6.047,0,0,0,1.105,1.5,10.09,10.09,0,0,0,9,2.685,51.753,51.753,0,0,0,8.7-2.254c2.377-.768,4.782-1.438,7.164-2.2a12.144,12.144,0,0,1,8.435.513c1.394.557,2.773,1.149,4.2,1.628a11.105,11.105,0,0,0,6.651.205,3.012,3.012,0,0,0,2.469-2.059c.323-1.418-.582-2.357-1.589-3.159a7.07,7.07,0,0,0-1.291-.753c-.67-.337-1.379-.6-2.029-.978-1.785-.978-1.8-2.191-.132-3.423a5.085,5.085,0,0,1,2.445-.91c1.237-.176,2.479-.357,3.7-.616a8.1,8.1,0,0,0,2.1-.719,2.147,2.147,0,0,0,.822-2.934,4.541,4.541,0,0,0-2.5-2.161,21.311,21.311,0,0,0-7.213-1.956c-.064-1.364-.186-2.734-.191-4.1V151.038c0-2.738-.083-5.477-.127-8.22.044-1.369.122-2.738.122-4.108V88.959C188.879,87.648,188.972,86.279,189.025,84.91Z" transform="translate(692.081 41.61)"/><path class="g" d="M188.175,84.1c-.054,1.369-.147,2.738-.147,4.108v49.752c0,1.369-.078,2.738-.122,4.108-1.276,0-1.956-.978-2.748-1.77-3.54-3.526-7.061-7.071-10.607-10.592-.87-.861-1.6-1.956-3.061-1.927l.034.024c-.068-1.105-.068-1.105-.738-.792a6.265,6.265,0,0,1-.924-1.134,16.216,16.216,0,0,0-5.966-6.606c-5.379-3.423-11.2-5.179-17.766-3.609A24.1,24.1,0,0,0,131.46,125.9a17.425,17.425,0,0,0-1.883,3.213,22.338,22.338,0,0,0-.865,15.365c1.364,4.455,3.423,8.6,7.619,11.193a5.1,5.1,0,0,1,2.078,2.1,9.153,9.153,0,0,0,2.406,2.822c4.655,4.685,9.345,9.345,14,14.035.489.489,1.271.88.846,2.015H145.313c-1.1,0-2.264-.24-3.227.577a1.5,1.5,0,0,1-.4.161,13.445,13.445,0,0,0-4.812-.455c-4.372-.044-8.739-.059-13.11-.088a27.408,27.408,0,0,0-7.565,0l-1.853.2a1.614,1.614,0,0,1-.738-1.242c-.044-1.125-.054-2.254-.054-3.379V87.86c0-5.027-.528-4.509,4.308-4.514h65.762c1.252,0,2.5.108,3.746.161l.489.675Zm-37.3,23.374H170.4c4.132,0,8.264,0,12.4-.024,1.858,0,2.2-.357,2.215-2.225q.059-7.335,0-14.67c0-3.941-.23-4.152-4.333-4.152h-60.1c-.875,0-1.756,0-2.626.083a1.286,1.286,0,0,0-1.247,1.174,14.027,14.027,0,0,0-.1,1.868V104.2c0,3.232.049,3.267,3.447,3.271Q135.47,107.5,150.873,107.479Z" transform="translate(692.932 42.416)"/><path class="h" d="M136.38,293.819a2.739,2.739,0,0,1,2.592-3.076,27.829,27.829,0,0,1,3.716-.284c1.614,0,3.232.215,4.851.3a6,6,0,0,1,2.841.817,1.62,1.62,0,0,1,.284,2.778,7.57,7.57,0,0,1-4.479,1.663,42.389,42.389,0,0,1-7.472-.142A7.653,7.653,0,0,1,136.38,293.819Z" transform="translate(681.258 -63.425)"/><path class="i" d="M197.441,174.228c1.467-.049,2.191,1.066,3.061,1.927,3.545,3.521,7.066,7.066,10.607,10.592.787.782,1.467,1.746,2.748,1.77.044,2.743.122,5.482.127,8.22V217.31c0,1.369.127,2.738.191,4.1-.044.567-.088,1.135-.127,1.7-.567.822-1.467.646-2.269.773a35.839,35.839,0,0,0-7.7,0q-10.519,0-21.027-.029c-5-.024-10.01.254-15.008-.161.978-.817,2.127-.567,3.227-.577h10.347c.425-1.135-.367-1.531-.846-2.015-4.655-4.69-9.345-9.35-14-14.035a9.334,9.334,0,0,1-2.406-2.822c1.149.489,2.293.978,3.452,1.433a22.938,22.938,0,0,0,18.2-.156,21.252,21.252,0,0,0,10.406-9.4c2.8-4.968,4.108-10.132,2.714-15.78C198.635,178.3,198.018,176.272,197.441,174.228Z" transform="translate(666.955 -4.03)"/><path class="h" d="M222,272.422c.039-.567.083-1.134.127-1.7a21.311,21.311,0,0,1,7.213,1.956,4.769,4.769,0,0,1,2.5,2.161,2.158,2.158,0,0,1-.821,2.934,8.1,8.1,0,0,1-2.1.719c-1.222.259-2.445.44-3.7.616a5.086,5.086,0,0,0-2.445.91c-1.672,1.232-1.653,2.445.132,3.423.65.367,1.359.626,2.029.978a7.066,7.066,0,0,1,1.291.753c1.007.8,1.912,1.741,1.589,3.159a3.012,3.012,0,0,1-2.469,2.059,11.1,11.1,0,0,1-6.65-.205c-1.423-.489-2.8-1.071-4.2-1.628a12.144,12.144,0,0,0-8.435-.513c-2.381.758-4.787,1.428-7.164,2.2a51.754,51.754,0,0,1-8.7,2.254,10.05,10.05,0,0,1-9-2.685,6.049,6.049,0,0,1-1.105-1.5,1.726,1.726,0,0,1,.347-2.073,9.32,9.32,0,0,1,2.846-1.785,26.036,26.036,0,0,0,3.335-1.7c2.23-1.5,2.293-3.369.269-5.213a7.228,7.228,0,0,0-.934-.626c2.719-1.315,5.555-.724,8.352-.45a1.538,1.538,0,0,1,1.178,1.33c.108.489.093.978.156,1.467.24,1.907.914,2.748,2.743,2.861a17.173,17.173,0,0,0,5.58-.176,7.824,7.824,0,0,1,5.081.323c1.408.489,2.841.978,4.191,1.6a6.738,6.738,0,0,0,3.653.523,1.193,1.193,0,0,0,1.105-1.575,6.059,6.059,0,0,0-.269-.7c-.152-.342-.333-.675-.489-1.022a2.122,2.122,0,0,1,1.154-3.047c1.354-.6,2.841-.944,4.22-1.511.89-.362,2.088-.67,2.02-1.907-.059-1.071-.978-1.682-1.956-2.054a3.6,3.6,0,0,0-.675-.157Z" transform="translate(659.027 -53.338)"/><path class="j" d="M217.43,274.2a3.594,3.594,0,0,1,.733.122c.978.372,1.878.978,1.956,2.054.068,1.237-1.13,1.545-2.02,1.907-1.379.567-2.861.9-4.22,1.511a2.12,2.12,0,0,0-1.154,3.047c.137.347.318.68.489,1.022a6.059,6.059,0,0,1,.269.7,1.193,1.193,0,0,1-1.105,1.575,6.739,6.739,0,0,1-3.653-.523c-1.35-.636-2.782-1.1-4.191-1.6a7.824,7.824,0,0,0-5.081-.323,17.01,17.01,0,0,1-5.58.176c-1.858-.122-2.5-.954-2.743-2.861-.064-.489-.049-1-.157-1.467a1.538,1.538,0,0,0-1.178-1.33c-2.8-.274-5.633-.866-8.352.45h-4.89a8.255,8.255,0,0,1-4.577-1.467,1.878,1.878,0,0,1-.934-2.235,1.468,1.468,0,0,0,.406-.161c5,.416,10.005.137,15.008.161,7.012.034,14.02.024,21.027.029.186.6.386,1.355,1.061,1.389a54.641,54.641,0,0,0,5.589,0c.7-.029.9-.753,1.047-1.374C215.963,274.845,216.868,275.022,217.43,274.2Z" transform="translate(663.593 -55.116)"/><path class="k" d="M126.544,275.72c0,.621-.034,1.34-.748,1.467a15.159,15.159,0,0,1-5.418,0c-.709-.132-.763-.841-.768-1.467Z" transform="translate(689.827 -55.892)"/><path class="a" d="M126.227,274.863h-6.934a1.55,1.55,0,0,1-.3-.557,27.411,27.411,0,0,1,7.565,0A1.5,1.5,0,0,1,126.227,274.863Z" transform="translate(690.144 -55.036)"/><path class="l" d="M154.094,110.7H123.286c-3.423,0-3.423-.039-3.447-3.271V92.755a14.022,14.022,0,0,1,.1-1.868,1.286,1.286,0,0,1,1.247-1.174c.87-.078,1.751-.083,2.626-.083h60.1c4.1,0,4.318.21,4.333,4.152,0,4.89.024,9.78,0,14.67,0,1.868-.357,2.205-2.215,2.225-4.132.049-8.264.024-12.4.024ZM131.844,93.42h0c-2.626,0-5.252-.039-7.883,0-1.4,0-1.8.421-1.829,1.8-.049,3-.059,6.005,0,9.007.029,1.57.4,1.9,2.108,1.917,4,.044,8.01,0,12.015,0,1.247,0,2.5,0,3.751-.044,1.154-.064,1.619-.489,1.638-1.6.059-3,.078-6,.034-9.007-.024-1.765-.377-2.073-2.323-2.108C136.852,93.386,134.348,93.42,131.844,93.42Zm14.567.068a23.783,23.783,0,0,0-.445,7.6,1.267,1.267,0,0,0,1.359,1.027h13.12a1.3,1.3,0,0,0,1.355-1.467c0-2,0-4-.039-6a1.125,1.125,0,0,0-1.193-1.169c-4.738-.01-9.477,0-14.157,0Zm34.23,4.4a4.44,4.44,0,1,0-4.254,4.445,4.694,4.694,0,0,0,4.279-4.435Zm-13.927,1.467a2.378,2.378,0,0,0,2.748-2.709,3.136,3.136,0,0,0-2.558-3.164c-1.335-.083-2.655,1.379-2.743,2.968-.078,1.883.817,2.9,2.577,2.939Zm16.108-4.509a19,19,0,0,0,.308,2.289c.054.24.533.46.856.533a.939.939,0,0,0,1.179-.6,9.922,9.922,0,0,0,.039-4.357,1.164,1.164,0,0,0-2.181.073c-.088.631-.1,1.247-.176,2.1Z" transform="translate(689.711 39.198)"/><path class="c" d="M186.316,160.987c.567,2.044,1.183,4.069,1.687,6.127,1.394,5.648.088,10.812-2.714,15.78a21.252,21.252,0,0,1-10.387,9.36,22.959,22.959,0,0,1-18.2.157c-1.159-.46-2.3-.978-3.452-1.433a5.1,5.1,0,0,0-2.078-2.1c-4.205-2.592-6.254-6.738-7.619-11.193a22.338,22.338,0,0,1,.875-15.34,17.424,17.424,0,0,1,1.883-3.213,23.992,23.992,0,0,1,14.67-10.235c6.563-1.57,12.4.186,17.766,3.609a16.215,16.215,0,0,1,5.966,6.606,6.265,6.265,0,0,0,.924,1.134l.738.792Zm-37.761,8.641c.2,8.607,3.193,13.692,9.071,16.861,6.059,3.257,12.064,2.7,17.78-1.066a12.1,12.1,0,0,0,1.716-1.467,1.252,1.252,0,0,0,.254-1.682c-.489-.738-.978-1.467-1.418-2.21a16.715,16.715,0,0,1-1.721-13.047,19.824,19.824,0,0,1,2.753-5.721c.919-1.384.836-1.756-.425-2.836a16.064,16.064,0,0,0-11.428-4.034C154.169,154.977,148.291,164,148.555,169.628Z" transform="translate(678.08 9.211)"/><path class="a" d="M231.318,173.258l-.738-.792C231.274,172.143,231.274,172.143,231.318,173.258Z" transform="translate(633.122 -3.035)"/><path class="k" d="M253.327,275.556c-.147.621-.347,1.345-1.046,1.374-1.858.083-3.731.088-5.589,0-.675-.034-.875-.787-1.061-1.389A35.839,35.839,0,0,1,253.327,275.556Z" transform="translate(625.432 -55.699)"/><path class="c" d="M134.2,97.364c2.5,0,5.007-.034,7.506,0,1.956.034,2.3.342,2.323,2.108.044,3,0,6-.034,9.007,0,1.125-.489,1.54-1.638,1.6-1.247.064-2.5.044-3.751.044H126.589c-1.712,0-2.078-.347-2.108-1.917-.054-3-.044-6.005,0-9.008,0-1.379.43-1.775,1.829-1.8,2.631-.054,5.257,0,7.883,0Zm.044,4.4h0c1.115,0,2.225.029,3.335,0a.978.978,0,0,0,.954-.949.914.914,0,0,0-.8-1.056,33.466,33.466,0,0,0-7.032,0,.9.9,0,0,0-.763,1.081.978.978,0,0,0,.978.924c1.105.015,2.22-.01,3.33-.01Z" transform="translate(687.357 35.254)"/><path class="m" d="M154.771,176.01c-.264-5.628,5.614-14.67,16.582-15.189a16.064,16.064,0,0,1,11.428,4.034c1.262,1.081,1.345,1.467.425,2.836a19.824,19.824,0,0,0-2.753,5.721,16.715,16.715,0,0,0,1.721,13.047c.425.763.949,1.467,1.418,2.21a1.252,1.252,0,0,1-.254,1.682,12.1,12.1,0,0,1-1.716,1.467c-5.716,3.765-11.736,4.323-17.78,1.066C157.964,189.712,154.967,184.616,154.771,176.01Zm23.824-9.027c-.108-.215-.161-.543-.328-.616a13.131,13.131,0,0,0-2.768-1.076c-2.1-.406-4.205-.694-5.584,1.658-.342.582-1.159.9-1.785,1.311-.836.538-1.672,1.1-2.553,1.555-2.411,1.252-3.868,3.1-3.878,5.917a1.956,1.956,0,0,1-1.066,1.858c-2.24.978-1.839,2.538-1.218,4.362a15.873,15.873,0,0,0,2.381,4.21,1.34,1.34,0,0,0,1.956.416c2.538-1.584,5.007-3.281,7.589-4.792a4.644,4.644,0,0,0,2.518-4.21c.2-3.672,1.306-7.076,4.2-9.633a2.346,2.346,0,0,0,.445-.6,1.061,1.061,0,0,0,.088-.362Zm-2.2,16.558a3.148,3.148,0,0,0-.7.4c-1.193,1.174-1.668,4.89-.787,6.21a.856.856,0,0,0,.6.362,3.687,3.687,0,0,0,3.164-1.575c.489-.734-.108-1.4-.367-2.064-.352-.919-.67-1.853-1.09-2.738C177.07,183.883,176.644,183.721,176.395,183.54Z" transform="translate(671.865 2.829)"/><path class="n" d="M182.955,171.385a1.062,1.062,0,0,1-.083.362,2.347,2.347,0,0,1-.445.6c-2.895,2.557-4,5.961-4.2,9.633a4.644,4.644,0,0,1-2.518,4.21c-2.582,1.511-5.051,3.208-7.589,4.792a1.34,1.34,0,0,1-1.956-.416,15.872,15.872,0,0,1-2.381-4.21c-.621-1.824-1.022-3.374,1.218-4.362a1.956,1.956,0,0,0,1.066-1.858c0-2.822,1.467-4.665,3.878-5.917.88-.46,1.716-1.017,2.553-1.555.626-.406,1.467-.729,1.785-1.311,1.379-2.352,3.482-2.064,5.584-1.658a13.128,13.128,0,0,1,2.768,1.076C182.794,170.842,182.848,171.169,182.955,171.385Z" transform="translate(667.505 -1.573)"/><path class="n" d="M196.972,207.3c.264.181.689.318.822.592.421.885.738,1.819,1.091,2.738.259.665.875,1.33.367,2.064a3.687,3.687,0,0,1-3.164,1.575.856.856,0,0,1-.6-.362c-.88-1.32-.406-5.037.787-6.21A3.15,3.15,0,0,1,196.972,207.3Z" transform="translate(651.287 -20.93)"/><path class="g" d="M139.952,104.071h-3.335a.978.978,0,0,1-.978-.924.9.9,0,0,1,.763-1.081,33.467,33.467,0,0,1,7.032,0,.914.914,0,0,1,.8,1.056.978.978,0,0,1-.954.949c-1.11.044-2.22,0-3.335,0Z" transform="translate(681.647 32.938)"/></g></svg>