<svg xmlns="http://www.w3.org/2000/svg" width="179.945" height="179.853" viewBox="0 0 179.945 179.853"><defs><style>.a{fill:#fff;stroke:#fff;}.b{fill:#e8e8e8;stroke:#e8e8e8;}.c,.n{fill:#e6e9e9;}.c{stroke:#e6e9e9;}.d,.j{fill:#f1f2f2;}.d{stroke:#f1f2f2;}.e,.o{fill:#ccd3d3;}.e{stroke:#ccd3d3;}.f{fill:#fefffe;stroke:#fefffe;}.g,.m{fill:#9cbbc2;}.g{stroke:#9cbbc2;}.h,.t{fill:#7f9da4;}.h{stroke:#7f9da4;}.i{fill:#65becd;stroke:#65becd;}.k,.l{fill:#3498ae;}.k{stroke:#3498ae;}.p,.q{fill:#92ccd7;}.p{stroke:#92ccd7;}.r,.s{fill:#77abb6;}.r{stroke:#77abb6;}</style></defs><g transform="translate(-1475.942 -85.486)"><path class="a" d="M86.118,178.605c-6.542.263-12.892-1.007-19.162-2.6A89.442,89.442,0,1,1,176.444,68.745c1.394,5.949,2.516,11.937,2.177,18.144a11.7,11.7,0,0,1-2.994-2.655q-22.919-22.876-45.839-45.777c-.769-.807-1.781-.645-2.736-.649-4.121,0-8.246-.029-12.367,0-2.664,0-5.329.11-7.988.172-.731-.053-1.461-.148-2.187-.148H55.435c-.611,0-1.222,0-1.834.033a1.237,1.237,0,0,0-1.313,1.394c0,1.948.091,3.9.143,5.849v.75a11.235,11.235,0,0,0,0,3.729c-.053,1.222-.153,2.44-.153,3.658v83.632c0,1.218.1,2.44.153,3.658l-.043,3.658a10.445,10.445,0,0,0,2.617,3.018q14.21,14.243,28.444,28.473C84.38,176.576,85.23,177.612,86.118,178.605Z" transform="translate(1476.576 86.024)"/><path class="b" d="M187.115,80.51q22.919,22.891,45.839,45.777a11.669,11.669,0,0,0,2.994,2.655,75.7,75.7,0,0,1-2.478,24.657,89.481,89.481,0,0,1-68.2,65.478,74.009,74.009,0,0,1-21.831,1.609c-.888-.993-1.738-2.029-2.679-2.975q-14.205-14.253-28.444-28.473a10.346,10.346,0,0,1-2.617-3.018l22.724-.081a14.353,14.353,0,0,0,1.456.129q25.111,0,50.222-.029c.478,0,.979,0,1.466-.024a1.194,1.194,0,0,0,1.318-1.361c-.029-1.953-.086-3.906-.129-5.859.053-1.218.148-2.435.148-3.653V91.468c0-1.218-.1-2.435-.148-3.653Z" transform="translate(1419.255 43.944)"/><path class="c" d="M186.616,191.1c.043,1.953.1,3.906.129,5.859a1.194,1.194,0,0,1-1.318,1.361c-.477,0-.955.024-1.466.024q-25.111,0-50.222.029c-.477,0-.955-.081-1.456-.129,0-.731,0-1.461-.057-2.192a1.342,1.342,0,0,0-1.432-1.351c-.85-.048-1.7-.043-2.559-.043H109.583c-.053-1.218-.153-2.44-.153-3.658V107.366c0-1.218.1-2.435.153-3.658l1.829-.029a13.455,13.455,0,0,1,.3,4.369v78.9c.086,1.394.377,1.752,1.767,1.762,4.894.033,9.788,0,14.683,0a3.726,3.726,0,0,0,.721-.091,1.036,1.036,0,0,0,.955-.955c.072-1.218.115-2.44.115-3.658V108.407a15.631,15.631,0,0,1,.3-4.737l1.867.067c.048,1.59.138,3.175.138,4.775V186.3c0,1.1,0,2.206.053,3.3a1.227,1.227,0,0,0,1.1,1.251,4.624,4.624,0,0,0,.726.076h28.253a2.139,2.139,0,0,0,1.638-.683c1.638-.138,1.638-.138,2.125-1.671a27.692,27.692,0,0,0,6.685.6,7.463,7.463,0,0,1,3.161.258l.477.32-.329-.477c.43-.554.955-.406,1.523-.244.477,1.943.477,1.982,1.91,2.015C181.97,191.088,184.3,191.083,186.616,191.1Z" transform="translate(1419.396 31.843)"/><path class="d" d="M109.652,86.427c-.053-1.953-.124-3.9-.143-5.849a1.237,1.237,0,0,1,1.313-1.394c.611,0,1.222-.033,1.834-.033h49.076c.726,0,1.456.1,2.182.148v3.424H135.89c-3.266,0-3.715-.148-3.576,3.662Z" transform="translate(1419.36 44.655)"/><path class="e" d="M109.82,86.413l22.661-.033H160.5c3.342,0,3.681.124,3.586-3.658V79.308c2.664-.062,5.329-.153,7.993-.172,4.121-.029,8.246,0,12.367,0,.955,0,1.967-.158,2.736.649l-.358,7.306-22.79.091-31.485.057-22.714-.057C109.825,86.914,109.82,86.661,109.82,86.413Z" transform="translate(1419.192 44.669)"/><path class="f" d="M109.764,294.24h18.651c.855,0,1.709,0,2.559.043a1.342,1.342,0,0,1,1.432,1.351c.053.73.043,1.461.057,2.192l-22.724.081Z" transform="translate(1419.234 -67.733)"/><path class="g" d="M109.657,96l22.714.067q-.091,1.848-.177,3.7l-1.867-.072-.415-.105c.076-1.17-.659-1.4-1.6-1.4H113.482a2.779,2.779,0,0,0-1.046.21c-.525.22-.53.731-.559,1.213-.138.033-.277.062-.42.086l-1.824.029A11.235,11.235,0,0,1,109.657,96Z" transform="translate(1419.365 35.85)"/><path class="g" d="M223.35,95.906l22.79-.086c.053,1.218.148,2.435.148,3.653v83.875c0,1.218-.1,2.435-.148,3.653-2.321,0-4.646,0-6.967-.057-1.432-.033-1.432-.072-1.91-2.015.033-.134.072-.267.11-.4,1.342.048,2.679.143,4.02.124,2.387-.033,2.488-.181,2.559-2.478v-79.8c0-.855,0-1.709-.029-2.559-.081-1.342-.4-1.709-1.824-1.719-5-.033-10,0-15.007,0a2.025,2.025,0,0,0-.7.158c-.568.229-.54.726-.516,1.218l-.558.131-.287.067-.9.212-.654.477Z" transform="translate(1359.871 35.944)"/><path class="h" d="M188.723,96l.129,4.464v82.849c0,.955.086,1.948.134,2.922a2.139,2.139,0,0,1-1.638.683H159.1a4.619,4.619,0,0,1-.726-.076,1.227,1.227,0,0,1-1.1-1.251c-.057-1.1-.053-2.2-.053-3.3V104.5c0-1.59-.091-3.175-.138-4.775q.086-1.838.177-3.691ZM168.95,140.822c-1.432,0-2.889-.043-4.331-.053a1.681,1.681,0,0,0-1.533.754c.277,1.991.277,2.034,1.662,2.077,1.91.057,3.82.038,5.73.057a10.447,10.447,0,0,0,.076,2.192c.754,3.094.153,6.05-.735,9a16.622,16.622,0,0,0-.583,2.5c-.43,3.252-1.132,6.508-.22,9.784a8.909,8.909,0,0,0,1.055,2.707c2.177,3.166,5.462,2.932,7.363-.224a10.072,10.072,0,0,0,.415-1.017,11.046,11.046,0,0,0,.716-4.67c0-4.522,0-9.044-.024-13.565a.778.778,0,0,0,.415-.821q.124-2.936.248-5.868c.955-.062,1.939-.067,2.894-.21.263-.043.573-.444.668-.745a.893.893,0,0,0-.6-1.141c-.635-.277-1.49,0-1.977-.812,0-1.031.645-1.986.573-3.113-.1-1.518-.616-2.564-2.216-2.865a3.371,3.371,0,0,1-1.547-3.027c.205-3.691-.344-3.5-3.691-3.5h-1.089c-2.76.076-3.223.477-3.252,3.123-.029,3.137.048,6.279.081,9.421Zm3.562-36.7v-.033c1.093,0,2.187.029,3.28,0a1.136,1.136,0,0,0,1.151-1.156,1.442,1.442,0,0,0-.664-1.566q-1.265-.688-2.574-1.318a.955.955,0,0,0-.692-.11,38.207,38.207,0,0,0-3.519,1.814c-.559.344-.525,1.05-.325,1.666a1.122,1.122,0,0,0,1.156.7C171.051,104.151,171.782,104.117,172.512,104.117Z" transform="translate(1394.498 35.85)"/><path class="i" d="M132.517,103.575a15.942,15.942,0,0,0-.3,4.737v75.605c0,1.218-.043,2.44-.115,3.658a1.036,1.036,0,0,1-.955.955,3.724,3.724,0,0,1-.721.091c-4.894,0-9.788.024-14.683,0-1.389,0-1.681-.368-1.767-1.762-.033-.477,0-.979,0-1.466V107.954a13.445,13.445,0,0,0-.3-4.369q.205-.038.415-.086l18.035-.029Zm-4.732,46.98a5.793,5.793,0,0,0,.325,1.4.859.859,0,0,0,1.48,0,2.989,2.989,0,0,0,.415-1.733q-.029-3.457-.076-6.914c0-.955.067-1.934.043-2.9a.778.778,0,0,0-1.1-.559,8.316,8.316,0,0,0-1.136.9c-2.865,2.822-5.692,5.644-8.5,8.5-3.677,3.72-3,2.387-3.08,7.6,0,.606-.038,1.218,0,1.824s-.258,1.232.525,1.528c.9-.224,1.375-.955,1.962-1.557,2.249-2.216,4.474-4.46,6.685-6.685C126.037,151.285,126.672,150.517,127.785,150.555Zm-11.632-15.022h0v4.388a13.517,13.517,0,0,0,.072,1.456.831.831,0,0,0,1.361.54c3.987-3.934,7.969-7.878,11.9-11.87a2.611,2.611,0,0,0,.559-1.681c.043-3.658,0-7.31,0-10.982a1.432,1.432,0,0,0-.42-.931c-.477-.439-.955-.091-1.28.229-3.724,3.686-7.43,7.4-11.145,11.087a3.409,3.409,0,0,0-1.041,2.626C116.173,132.119,116.153,133.8,116.153,135.533Zm13.914,38.38v-1.829a5.547,5.547,0,0,0-.043-1.093,1.8,1.8,0,0,0-.42-.931c-.477-.43-.955-.062-1.28.258-3.724,3.681-7.415,7.406-11.149,11.082-1.218,1.194-1.151,2.607-.869,4.068.057.3.406.745.654.774,2.149.234,4.34.778,6.117-1.194,1.38-1.542,2.917-2.941,4.379-4.412,3.046-3.07,2.564-2.287,2.612-6.36Z" transform="translate(1417.175 31.947)"/><path class="i" d="M225,103.871h0l.681-.16,1.066-.251c1.939.029,3.877.062,5.816.086,1.337,0,2.669,0,4,.053,1.1.053,1.466.477,1.557,1.595.048.606.033,1.213.038,1.819v10.552L238.117,119a2.43,2.43,0,0,0-1.91.84c-1.8,1.819-3.581,3.653-5.439,5.41a4.5,4.5,0,0,0-1.432,3.586c.053,4.746,0,9.492,0,14.243,0,2.521-.072,5.042-.062,7.563a3.458,3.458,0,0,0,.368,1.342c.057.134.387.172.6.205a.391.391,0,0,0,.277-.148c.477-.477.377-1.113.392-1.7.057-2.387.1-4.8.143-7.205,1.628-.081,2.292-1.509,3.314-2.416s1.91-2.12,3.5-2.1c.091,1.332.253,2.66.258,3.992.033,4.87,0,9.741,0,14.606l-.029,2.149a2.66,2.66,0,0,0-2.211,1.07c-1.714,1.729-3.4,3.481-5.176,5.152a4.441,4.441,0,0,0-1.409,3.586c.062,3.772,0,7.549.029,11.321a.94.94,0,0,0,.4.955c.692.172,1.036-.425,1.432-.821,1.485-1.432,2.937-2.917,4.4-4.379a4.475,4.475,0,0,1,2.387-1.6c.057,1.337.148,2.674.167,4.006.043,3.285.062,6.57.086,9.855-.038.129-.076.263-.11.4-.549-.162-1.093-.31-1.523.244l-.158.153a7.434,7.434,0,0,0-3.156-.258,27.693,27.693,0,0,1-6.685-.6c0-1.466-.029-2.932-.029-4.4V108.531c0-1.1,0-2.2-.081-3.295l-.408-1.366Z" transform="translate(1359.009 31.952)"/><path class="j" d="M224.268,104.32c.731.21,1.432.477,1.48,1.38.072,1.093.081,2.2.081,3.295v75.514c0,1.466,0,2.932.029,4.4-.477,1.533-.477,1.533-2.125,1.671-.048-.955-.134-1.948-.134-2.922V104.807Z" transform="translate(1359.741 31.503)"/><path class="j" d="M249.138,282.94l.329.477-.477-.32Z" transform="translate(1346.474 -61.828)"/><path class="c" d="M188.856,86.674c.1,3.782-.248,3.662-3.586,3.658H157.256c-.138-3.82.31-3.662,3.576-3.662Q174.852,86.683,188.856,86.674Z" transform="translate(1394.417 40.726)"/><path class="k" d="M132.525,101.944l-18.035.029c.029-.478.033-.993.559-1.213a2.779,2.779,0,0,1,1.046-.21H130.92C131.866,100.54,132.6,100.765,132.525,101.944Z" transform="translate(1416.752 33.473)"/><path class="l" d="M240.163,186.977c-.024-3.285-.043-6.57-.086-9.855,0-1.332-.11-2.669-.162-4.006.067-.454.138-.912.205-1.37,2.755-1.017,4.488-2.712,4.407-5.916-.1-3.786,0-7.583-.038-11.374,0-.43.205-1.012-.63-1.256-1.318.6-2.015,2.387-3.772,2.492V141.081c0-1.332-.167-2.66-.253-3.992.11-.926.22-1.848.325-2.774,2.774-1,4.46-2.712,4.388-5.911-.1-4.775,0-9.55-.038-14.325,0-.43.21-1.007-.626-1.275l-3.772,3.2V105.451c0-.606,0-1.213-.038-1.819-.091-1.132-.454-1.542-1.557-1.595-1.332-.067-2.664-.033-4-.052-1.939,0-3.877-.057-5.816-.086-.024-.477-.053-.988.516-1.218a2.024,2.024,0,0,1,.7-.158c5,0,10.027-.033,15.007,0,1.432,0,1.743.377,1.824,1.719.048.85.029,1.7.029,2.559v79.8c-.072,2.3-.191,2.445-2.559,2.478C242.842,187.121,241.505,187.025,240.163,186.977Z" transform="translate(1357.082 33.494)"/><path class="c" d="M191.716,195.275q-.124,2.927-.248,5.868l-.415.821c0,4.522,0,9.044.024,13.565a11.047,11.047,0,0,1-.716,4.67,10.069,10.069,0,0,1-.415,1.017c-1.91,3.156-5.186,3.39-7.363.224a8.91,8.91,0,0,1-1.07-2.683c-.912-3.276-.21-6.532.22-9.784a16.622,16.622,0,0,1,.583-2.5c.888-2.946,1.49-5.9.735-9a10.448,10.448,0,0,1-.076-2.192,1.623,1.623,0,0,1,2.029,0,37.391,37.391,0,0,1-1.251,13.016,21.114,21.114,0,0,0-.807,7.587,8.823,8.823,0,0,0,1.461,4.823,2.1,2.1,0,0,0,3.658-.062,7.941,7.941,0,0,0,1.394-4.469,31.359,31.359,0,0,0-.234-6.207,6.827,6.827,0,0,1-.076-2.526,34.42,34.42,0,0,0,.339-5.467l-.425-.836q-.115-2.932-.234-5.864A2.325,2.325,0,0,1,191.716,195.275Z" transform="translate(1381.965 -15.762)"/><path class="m" d="M182.014,176.112c-.033-3.142-.11-6.284-.081-9.421.029-2.65.477-3.046,3.252-3.123h1.089c3.342,0,3.9-.186,3.691,3.5a3.371,3.371,0,0,0,1.547,3.027,9.359,9.359,0,0,0-1.1.072c-2.149.258-2.55.654-2.631,2.679-.038.955,0,1.91,0,3.07Z" transform="translate(1381.515 0.546)"/><path class="e" d="M175.552,183.256l5.763-.2c0-1.165-.033-2.12,0-3.07.081-2.025.477-2.421,2.631-2.679.363-.043.731-.048,1.1-.072,1.6.286,2.12,1.332,2.216,2.865.072,1.127-.563,2.082-.573,3.113.478.807,1.342.535,1.977.812a.893.893,0,0,1,.6,1.141c-.1.3-.406.7-.668.745-.955.143-1.91.148-2.894.21a2.325,2.325,0,0,0-2.9,0h-3.82a1.623,1.623,0,0,0-2.029,0c-1.91,0-3.82,0-5.73-.057-1.385-.043-1.385-.086-1.662-2.077l3.925-.043a2.21,2.21,0,0,0,1.939-.659Zm10.863-3.147a2.024,2.024,0,0,0-2.1-2.01,2.058,2.058,0,0,0-2.206,2.278,2.087,2.087,0,0,0,2.464,2,2.029,2.029,0,0,0,1.843-2.268Z" transform="translate(1387.977 -6.599)"/><path class="n" d="M185.6,108.4c-.731,0-1.461.033-2.187,0a1.122,1.122,0,0,1-1.156-.7c-.2-.616-.234-1.323.325-1.666a38.2,38.2,0,0,1,3.519-1.814.955.955,0,0,1,.692.11q1.3.63,2.574,1.318a1.457,1.457,0,0,1,.664,1.566,1.136,1.136,0,0,1-1.151,1.156c-1.093.038-2.187,0-3.28,0Z" transform="translate(1381.414 31.564)"/><path class="m" d="M175.524,189.8a2.223,2.223,0,0,1-1.939.659l-3.925.043a1.681,1.681,0,0,1,1.533-.754C172.635,189.754,174.082,189.778,175.524,189.8Z" transform="translate(1387.925 -13.13)"/><path class="o" d="M202,208.931l.415-.821A.778.778,0,0,1,202,208.931Z" transform="translate(1371.027 -22.729)"/><path class="p" d="M118.855,149.53v-5.123a3.409,3.409,0,0,1,1.041-2.626c3.715-3.691,7.42-7.4,11.145-11.087.325-.32.816-.668,1.28-.229a1.433,1.433,0,0,1,.42.931c.033,3.658.057,7.31,0,10.982a2.612,2.612,0,0,1-.559,1.681c-3.93,3.992-7.912,7.936-11.9,11.87a.831.831,0,0,1-1.361-.54,13.515,13.515,0,0,1-.072-1.456v-4.388Z" transform="translate(1414.474 17.951)"/><path class="p" d="M132.754,246.57v.363c-.048,4.073.435,3.29-2.612,6.36-1.461,1.471-3,2.865-4.379,4.412-1.776,1.972-3.968,1.433-6.117,1.194-.248-.029-.6-.477-.654-.773-.282-1.461-.349-2.865.869-4.068,3.734-3.677,7.425-7.4,11.149-11.082.325-.32.807-.688,1.28-.258a1.8,1.8,0,0,1,.42.931,5.551,5.551,0,0,1,.043,1.093Z" transform="translate(1414.489 -40.709)"/><path class="p" d="M130.5,190.317c-1.113-.048-1.748.731-2.43,1.432-2.235,2.23-4.46,4.474-6.685,6.685-.587.583-1.065,1.332-1.962,1.557-.783-.3-.478-.988-.525-1.528s0-1.218,0-1.824c.076-5.219-.6-3.877,3.08-7.6,2.812-2.865,5.658-5.677,8.5-8.5a8.318,8.318,0,0,1,1.136-.9.778.778,0,0,1,1.1.559c0,.955-.024,1.91-.038,2.9-1.962.086-2.005.086-2.058,1.552C130.524,186.531,130.528,188.427,130.5,190.317Z" transform="translate(1414.461 -7.815)"/><path class="n" d="M143.22,194.169c.029-1.91.024-3.787.091-5.677.053-1.466.1-1.466,2.058-1.552.024,2.306.053,4.608.072,6.914a2.989,2.989,0,0,1-.415,1.733.859.859,0,0,1-1.48,0A5.791,5.791,0,0,1,143.22,194.169Z" transform="translate(1401.74 -11.667)"/><path class="p" d="M242.957,152.875c-.105.926-.215,1.848-.325,2.774-1.609,0-2.464,1.175-3.51,2.1s-1.686,2.335-3.314,2.416l-1.719-.057c0-4.775.043-9.5,0-14.243a4.5,4.5,0,0,1,1.432-3.586c1.857-1.757,3.639-3.591,5.439-5.41a2.43,2.43,0,0,1,1.91-.84Q242.919,144.452,242.957,152.875Z" transform="translate(1354.264 14.935)"/><path class="q" d="M242.923,234.465c-.067.477-.138.917-.205,1.37a4.494,4.494,0,0,0-2.387,1.6c-1.466,1.461-2.917,2.937-4.4,4.379-.406.4-.75.993-1.432.821-.42-.234-.4-.606-.4-.955,0-3.772.033-7.549-.029-11.321a4.441,4.441,0,0,1,1.394-3.586c1.771-1.671,3.462-3.424,5.176-5.152a2.654,2.654,0,0,1,2.211-1.07Q242.889,227.513,242.923,234.465Z" transform="translate(1354.279 -29.225)"/><path class="r" d="M252.571,147.807q-.043-8.423-.091-16.846l.043-1.432,3.772-3.2c.836.267.625.845.625,1.275,0,4.775-.062,9.55.038,14.325C257.026,145.1,255.345,146.809,252.571,147.807Z" transform="translate(1344.65 20.002)"/><path class="s" d="M252.562,229.406q-.029-6.952-.062-13.909l.029-2.149c1.757-.086,2.454-1.91,3.772-2.488.836.244.63.826.63,1.256.024,3.791-.062,7.587.038,11.374C257.036,226.684,255.317,228.388,252.562,229.406Z" transform="translate(1344.64 -24.166)"/><path class="j" d="M234.032,186.46l1.719.057c-.043,2.387-.086,4.8-.143,7.205a2.229,2.229,0,0,1-.392,1.7.392.392,0,0,1-.277.148c-.215-.033-.544-.072-.6-.205a3.458,3.458,0,0,1-.368-1.342C233.984,191.493,234.008,188.981,234.032,186.46Z" transform="translate(1354.322 -11.416)"/><path class="t" d="M187.011,195.81h3.82q.115,2.937.234,5.864a.821.821,0,0,0,.425.836,34.425,34.425,0,0,1-.339,5.467,6.828,6.828,0,0,0,.076,2.526,31.361,31.361,0,0,1,.234,6.207,7.94,7.94,0,0,1-1.394,4.469,2.108,2.108,0,0,1-3.658.062,8.855,8.855,0,0,1-1.471-4.808,21.114,21.114,0,0,1,.831-7.592A37.739,37.739,0,0,0,187.011,195.81Z" transform="translate(1379.971 -16.302)"/><path class="o" d="M198.207,208.936a.821.821,0,0,1-.425-.836Z" transform="translate(1373.235 -22.723)"/><path class="t" d="M200.128,181.043a2.029,2.029,0,0,1-1.843,2.268,2.087,2.087,0,0,1-2.469-2,2.058,2.058,0,0,1,2.206-2.278,2.025,2.025,0,0,1,2.106,2.01Z" transform="translate(1374.264 -7.532)"/></g></svg>