<svg xmlns="http://www.w3.org/2000/svg" width="179.172" height="179.417" viewBox="0 0 179.172 179.417"><defs><style>.a{fill:#fff;stroke:#fff;}.b{fill:#e8e8e8;stroke:#e8e8e8;}.c{fill:#92ccd7;stroke:#92ccd7;}.d,.j{fill:#f36c71;}.d{stroke:#f36c71;}.e{fill:#77abb6;}.f{fill:#9cbbc2;}.g{fill:#7f9da4;}.h{fill:#c25b60;stroke:#c25b60;}.i{fill:#76aab4;stroke:#76aab4;}.k{fill:#e1e4e4;}.l,.m{fill:#b0c3c4;}.l{stroke:#b0c3c4;}.n{fill:#ffba01;stroke:#ffba01;}.o{fill:#db9901;stroke:#db9901;}.p{fill:#2c9138;}.q{fill:#555775;}.r{fill:#755b68;}</style></defs><g transform="translate(-995.849 -85.498)"><path class="a" d="M95.482,177.935a6.793,6.793,0,0,1-3.573.518c-27.9.2-51.409-9.747-69.99-30.659a84.466,84.466,0,0,1-20.807-44.44c-3.91-26.468,2.445-50.391,19.5-71.089C34.069,15.987,51.432,5.917,72.125,1.745A78.3,78.3,0,0,1,93.579.218c32.1,2.45,56.547,17.43,73.011,45.125a82.475,82.475,0,0,1,10.8,32.348,90.2,90.2,0,0,1-1.641,32.3c-.224.951-.595,1.85-.9,2.773-1.622-.209-2.412-1.57-3.42-2.574q-29.046-29.018-58.069-58.036c-.775-.775-1.56-1.537-2.336-2.312a2.217,2.217,0,0,0-1.988-.666l.114-.038c-.228-.29-.476-.585-.675-.88-.561-.79-1.094-1.6-1.689-2.379A20.793,20.793,0,1,0,77.567,74.822c1.275.918,2.626,1.736,3.939,2.6q0,2.3-.052,4.61a7.734,7.734,0,0,1-3.125,1.8,28.761,28.761,0,0,0-9.685,6.988,5.6,5.6,0,0,1-5.133,2.074c-.6-.062-1.218,0-1.822-.029a2.06,2.06,0,0,1-2.212-1.517A1.508,1.508,0,0,0,57.92,90.1H49.9a1.308,1.308,0,0,0-1.427,1.356c-.057,1.213-.048,2.431-.062,3.649-1.2,0-2.379.048-3.6.048H35.087c-.714,0-1.47,0-1.722.894-.038,4.99-.1,9.99-.1,14.97,0,2.436.109,4.866.171,7.3a13.025,13.025,0,0,0-.224,4.543l.633.88c.8.909,1.57,1.855,2.421,2.712q24.261,24.261,48.522,48.545c.433.428.894.832,1.289,1.294a4.181,4.181,0,0,0,3.544,1.494C91.591,177.755,93.536,177.869,95.482,177.935Z" transform="translate(996.362 85.956)"/><path class="b" d="M132.813,232.085c-1.946-.043-3.891-.157-5.832-.1a4.182,4.182,0,0,1-3.549-1.518c-.395-.476-.856-.866-1.289-1.294q-24.261-24.261-48.522-48.545c-.852-.856-1.617-1.8-2.421-2.712,1.708,0,3.411-.052,5.119-.052,2.559,0,5.119,0,7.678.033,1.351.024,1.66.385,1.76,1.784.057.852,0,1.708.09,2.554a1.341,1.341,0,0,0,1.427,1.351q4.024.043,8.044,0a1.427,1.427,0,0,0,1.427-.951,1.641,1.641,0,0,1,1.679-1.137h5.485a1.87,1.87,0,0,1,1.589.737c1.946,2.588,4.633,4.31,7.288,6a21.53,21.53,0,0,0,10.965,3.6,8.491,8.491,0,0,0,7.321-.038c5.908-.143,10.622-3.021,15.032-6.574,1.427-1.137,2.3-3.1,4.091-3.515a29.61,29.61,0,0,1,5.808-.224h.733c1.013,0,1.936.109,2.345,1.27a1.427,1.427,0,0,0,1.465.866c2.678,0,5.352,0,8.03-.033a1.327,1.327,0,0,0,1.337-1.427c.062-.951.048-1.946.114-2.916a1.332,1.332,0,0,1,1.427-1.351c2.921-.038,5.837-.033,8.758-.052,1.094,0,2.193,0,3.282-.076a1.679,1.679,0,0,0,1.674-1.622c.081-1.17.476-2.44-.595-3.425a48.611,48.611,0,0,0,.224-8.32c0-4.828-.1-9.657-.157-14.49-.761-.828-1.77-.6-2.707-.609-3.967-.029-7.93-.033-11.893-.048-.033-1.208-.038-2.421-.1-3.63a1.284,1.284,0,0,0-1.427-1.322q-4-.033-8,0c-.618,0-1.246.152-1.451.842-.343,1.161-1.185,1.394-2.236,1.379a27.971,27.971,0,0,0-3.63.024,5.721,5.721,0,0,1-5.4-2.217,26.193,26.193,0,0,0-10.713-7.264,2.866,2.866,0,0,1-1.522-.9q0-2.207.024-4.415c1.028-.633,2.084-1.232,3.083-1.9a20.352,20.352,0,0,0,9.4-17.2c.076-3.249-.951-6.227-1.693-9.281a2.217,2.217,0,0,1,1.988.666c.775.775,1.56,1.537,2.336,2.312q29.018,29.018,58.069,58.036c1.008,1,1.8,2.378,3.42,2.574a39.644,39.644,0,0,1-3.211,10.023q-19.2,44.178-66.4,54.063A38.238,38.238,0,0,1,132.813,232.085Z" transform="translate(959.031 31.807)"/><path class="c" d="M101.81,184.711c0-1.218,0-2.436.062-3.649a1.308,1.308,0,0,1,1.427-1.356c2.673-.029,5.352-.024,8.025,0a1.508,1.508,0,0,1,1.517,1.237,2.057,2.057,0,0,0,2.212,1.517,17.915,17.915,0,0,1,1.822.029,5.621,5.621,0,0,0,5.133-2.074,28.761,28.761,0,0,1,9.685-6.988,7.522,7.522,0,0,0,3.125-1.8,18.032,18.032,0,0,0,2.854-.428,7.206,7.206,0,0,1,3.211-.19,15.846,15.846,0,0,1-6.1,3.677,25.262,25.262,0,0,0-16.136,16.545,10.134,10.134,0,0,1-2.141,4.12,4.5,4.5,0,0,0-1.318,4c-.133,2.307,1.427,3.687,2.854,5.123l.766,3.715c-1.427,0-2.907,0-4.357.029a1.367,1.367,0,0,0-1.556,1.2c-.162,1.427-1.1,1.693-2.307,1.689h-8.71Z" transform="translate(942.983 -3.63)"/><path class="d" d="M185.322,90.339c.761,3.054,1.77,6.032,1.693,9.281a20.352,20.352,0,0,1-9.4,17.2c-1,.68-2.055,1.28-3.087,1.9-.813.209-1.641.4-2.45.642a20.541,20.541,0,0,1-11.483,0l-2.8-.771c-1.313-.866-2.664-1.684-3.939-2.6a20.791,20.791,0,1,1,29.222-28.942c.595.766,1.127,1.579,1.689,2.379.033.442.167.8.675.875Zm-5.666-2.379h.062a2.507,2.507,0,0,0-1.027-1.85,18.376,18.376,0,0,0-17.6-4.148c-6.412,1.613-12.14,7.935-12.815,15.636-.542,6.146,1.427,11.417,6.527,15.289h0a.856.856,0,0,0,.78.68,14.773,14.773,0,0,0,8.948,3.644c10.465,1.008,22.125-7.806,19.29-22.13a11.219,11.219,0,0,0-3.2-6.422,1.123,1.123,0,0,0-.966-.68Z" transform="translate(920.08 44.789)"/><path class="e" d="M85.132,252.2h8.71c1.208,0,2.145-.243,2.307-1.689.1-.866.761-1.189,1.556-1.2,1.451-.029,2.907,0,4.357-.029.747,1.365,1.427,2.759,2.25,4.091,3.71,6.151,8.924,10.3,16.031,11.893a14.356,14.356,0,0,1,2.7,3.1,21.583,21.583,0,0,1-10.965-3.6c-2.654-1.689-5.342-3.411-7.288-6a1.869,1.869,0,0,0-1.589-.737H97.719a1.641,1.641,0,0,0-1.679,1.137,1.427,1.427,0,0,1-1.427.951q-4.015.029-8.044,0a1.341,1.341,0,0,1-1.427-1.351c-.067-.847-.033-1.7-.09-2.555-.1-1.4-.409-1.76-1.76-1.784-2.54-.043-5.1-.043-7.635-.043-1.708,0-3.411.033-5.119.052l-.637-.88c4.381.024,8.758.043,13.139.081C84.071,253.647,84.97,253.485,85.132,252.2Z" transform="translate(959.713 -44.718)"/><path class="f" d="M85.017,226.316c-.162,1.284-1.061,1.427-2.117,1.427-4.381-.038-8.758-.057-13.139-.081a13.379,13.379,0,0,1,.228-4.543c3.025.048,6.046.157,9.067.128,1.6,0-9.21,3.153-9.067,1.5.29-3.24-.228-16.667-.228-16.667a60.383,60.383,0,0,1,.688-7.231c.228-1.237,12.6-.171,11.438-.171a116.815,116.815,0,0,0-11.969.171c.257-.918,1.013-.89,1.727-.894h9.723c1.2,0,2.379-.033,3.6-.048Q84.988,213.115,85.017,226.316Z" transform="translate(959.828 -18.833)"/><path class="g" d="M171.293,162.72l2.8.771a20.541,20.541,0,0,0,11.483,0c.809-.238,1.636-.433,2.45-.642v4.41a7.168,7.168,0,0,1-3.159-.476,1.451,1.451,0,0,0-1.931.366,5.917,5.917,0,0,0-3.72-.533l-1.9.062a7.208,7.208,0,0,0-3.211.19,18.03,18.03,0,0,1-2.854.428Q171.269,165.027,171.293,162.72Z" transform="translate(906.575 0.665)"/><path class="e" d="M235.959,199.83c3.963,0,7.925,0,11.893.048.951,0,1.946-.219,2.707.614-1.822.024-3.644.048-5.471.081-1.213,0-2.426.024-3.639.1a1.013,1.013,0,0,0-.994,1.246c.576,4.082,1.023,8.173,1.427,12.273.19,1.9.528,3.834.618,5.78a7.352,7.352,0,0,0,.314,1.784,1.836,1.836,0,0,0,1.836,1.47l5.832.071c1.094.985.675,2.255.595,3.425a1.679,1.679,0,0,1-1.674,1.622c-1.089.09-2.188.071-3.282.076-2.921,0-5.837,0-8.758.052a1.332,1.332,0,0,0-1.427,1.351c-.067.951-.052,1.946-.114,2.916-.048.823-.476,1.427-1.337,1.427-2.678.048-5.352.038-8.03.033a1.427,1.427,0,0,1-1.465-.866c-.409-1.161-1.332-1.28-2.345-1.27h-.733a29.072,29.072,0,0,0-5.808.224c-1.855.428-2.678,2.379-4.091,3.515-4.41,3.553-9.124,6.431-15.032,6.574l2.245-2.983c10.094-2.612,16.535-8.877,19.028-19.071.476-.542.951-1.1,1.427-1.622a6.694,6.694,0,0,0-1.313-10.109c-.347-1.284-.666-2.574-1.051-3.844-.347-1.151-1.213-2.112-1.265-3.377a2.816,2.816,0,0,1,2.212,1.08c1.717,1.722,3.406,3.477,5.176,5.147a4.457,4.457,0,0,1,1.451,3.563c-.067,3.772-.029,7.545,0,11.317,0,.847.024,1.7.1,2.545a1.208,1.208,0,0,0,1.213,1.137c1.822.071,3.644.071,5.471.086,4.329.024,4.2.157,4.2-4.177Q235.9,210.952,235.959,199.83Z" transform="translate(893.085 -18.791)"/><path class="c" d="M235.325,184.668c-.029,7.421-.067,14.842-.076,22.263,0,4.334.133,4.2-4.2,4.177-1.827,0-3.649,0-5.471-.086a1.208,1.208,0,0,1-1.213-1.137c-.081-.842-.1-1.7-.1-2.545,0-3.772-.048-7.545,0-11.317a4.457,4.457,0,0,0-1.451-3.563c-1.77-1.67-3.458-3.425-5.176-5.147a2.781,2.781,0,0,0-2.212-1.08h.029a.951.951,0,0,0-.652-.8V185.4a1.427,1.427,0,0,0-.875-1.4c-.7-.809-1.38-1.646-2.126-2.417-3.658-3.758-7.859-6.593-13.106-7.611l-2.926-2.488a1.451,1.451,0,0,1,1.931-.366,7.169,7.169,0,0,0,3.159.476,2.831,2.831,0,0,0,1.522.9,26.32,26.32,0,0,1,10.713,7.264,5.7,5.7,0,0,0,5.4,2.217,27.974,27.974,0,0,1,3.63-.024c1.051,0,1.9-.219,2.236-1.38.2-.69.832-.842,1.451-.842h8a1.284,1.284,0,0,1,1.427,1.322C235.287,182.247,235.291,183.46,235.325,184.668Z" transform="translate(893.719 -3.63)"/><path class="h" d="M207.273,217.7a6.694,6.694,0,0,1,1.313,10.109c-.5.523-.951,1.08-1.427,1.622a16.174,16.174,0,0,1-6.588-.695,3.768,3.768,0,0,0-3.887-2.05,21.769,21.769,0,0,1-3.977,0c-2.212-.224-4.015.247-5.233,2.293-.224.385-.737.609-1.118.9a2.188,2.188,0,0,0-.89,1.879v7.958a2.134,2.134,0,0,0,2,2.183,17.32,17.32,0,0,1,.637,6.579l-2.236,2.987a8.491,8.491,0,0,1-7.321.038,14.337,14.337,0,0,0-2.707-3.092c0-1.013-.319-2.074.366-3.3.714.661,1.256,1.123,1.755,1.627,1.213,1.232,2.512,1.2,4,.476a3.034,3.034,0,0,0,1.85-3.22,3.578,3.578,0,0,0-.685-2.378,4.221,4.221,0,0,1-.818-3.087c.024-1.95.133-3.906-.029-5.842-.214-2.588.219-4.786,2.673-6.184,1.608-2.854,4.21-3.273,7.136-2.921a18.3,18.3,0,0,0,2.554,0,11.476,11.476,0,0,1,6,1.08c1.641.885,2.726.395,4.129-1.213a3.677,3.677,0,0,0,.6-4.058c-.342-.728-1.375-1.037-1.251-2.079C205.28,216.7,206.193,218.03,207.273,217.7Z" transform="translate(904.208 -27.872)"/><path class="i" d="M298.388,224.02l-5.832-.076a1.836,1.836,0,0,1-1.836-1.47,7.35,7.35,0,0,1-.314-1.784c-.09-1.946-.428-3.858-.618-5.78-.414-4.1-.861-8.192-1.427-12.273a1.013,1.013,0,0,1,.994-1.246c1.213-.076,2.426-.081,3.639-.1,1.827-.033,3.649-.057,5.471-.081.057,4.828.166,9.657.157,14.485A48.655,48.655,0,0,1,298.388,224.02Z" transform="translate(845.189 -19.515)"/><path class="j" d="M186.388,196.83c-1.08.309-1.993-.994-3.13-.357-.124,1.042.909,1.351,1.251,2.079a3.677,3.677,0,0,1-.6,4.058c-1.4,1.608-2.488,2.1-4.129,1.213a11.476,11.476,0,0,0-6-1.08,18.3,18.3,0,0,1-2.555,0c-2.94-.352-5.542.043-7.136,2.921-2.455,1.38-2.888,3.577-2.673,6.184.162,1.936.052,3.891.029,5.842a4.287,4.287,0,0,0,.818,3.087,3.64,3.64,0,0,1,.685,2.378,3.017,3.017,0,0,1-1.85,3.22c-1.489.7-2.788.737-4-.476-.476-.5-1.042-.951-1.755-1.627-.685,1.223-.376,2.283-.366,3.3-7.1-1.584-12.316-5.737-16.026-11.893-.8-1.332-1.5-2.726-2.25-4.091-.257-1.237-.514-2.478-.766-3.715a9.072,9.072,0,0,0,7.036.033c1.87,6.26,6.041,10.366,12.026,12.735,1.641.652,2.654.033,2.759-1.67.086-1.451-.071-2.921.067-4.362.29-3.054-.076-5.785-2.892-7.649a5.355,5.355,0,0,1-.951-1.1c-.656-3.006-.671-3.025-3.33-3.083-1.08,0-2.164.033-3.24-.052-1.341-.1-1.789-.576-2.031-2.05a8.058,8.058,0,0,1,0-1.427c2.283-.033,4.567-.1,6.85-.086a3.24,3.24,0,0,0,2.821-1.265,8.752,8.752,0,0,1,1.532-1.522,3.257,3.257,0,0,0,1.208-2.854c0-2.526.029-5.052.048-7.578a16.773,16.773,0,0,0,1.7.476,2.109,2.109,0,0,1,1.9,2.5c-.071,1.3-.043,2.612,0,3.92.062,1.475.243,1.622,1.974,1.9a9.867,9.867,0,0,0,1.094.048c.8,1.56,2.378,2.379,3.425,3.734a1.955,1.955,0,0,0,1.655.59c2.426,0,4.862.076,7.288-.029,2.1-.1,2.954-1.556,2.141-3.473a19.163,19.163,0,0,0-12.5-11.35c1.127-2.2.647-4.6.823-6.907,5.233,1.037,9.447,3.872,13.106,7.611.747.771,1.427,1.608,2.126,2.417a1.7,1.7,0,0,0,.875,1.4v.033a.847.847,0,0,0,.652.8h-.029c.052,1.265.918,2.226,1.265,3.377C185.722,194.256,186.04,195.546,186.388,196.83Z" transform="translate(925.094 -7.005)"/><path class="d" d="M155.563,171.042l1.9-.062c1.479.951,2.574,2.079,2.26,4.115a3.314,3.314,0,0,1-3.3,3.144,4,4,0,0,1-3.577-1.337c-.228-.262-.614-.5-.89-.2a1.451,1.451,0,0,0-.252.989,8.576,8.576,0,0,0,1.427,3.3,17.3,17.3,0,0,0-2.436.647,18.92,18.92,0,0,0-10.908,11.945c-1.427.271-2.683-1.151-4.419-.476a10.319,10.319,0,0,1,1.784,2.107c.89,1.841.8,2.854-.533,4.243a3.66,3.66,0,0,1-4.529,1.042c-.742-.362-1.308-1.07-2.212-1.132a4.5,4.5,0,0,1,1.318-4,10.133,10.133,0,0,0,2.141-4.12A25.272,25.272,0,0,1,149.474,174.7,15.846,15.846,0,0,0,155.563,171.042Z" transform="translate(928.299 -3.665)"/><path class="h" d="M129.911,223.577c.9.062,1.47.771,2.212,1.132,1.665.809,3.13.433,4.529-1.042s1.427-2.379.533-4.243a10.318,10.318,0,0,0-1.784-2.107c1.736-.695,2.973.728,4.419.476a5.633,5.633,0,0,0,2.379,2.293,8,8,0,0,0,0,1.427c.243,1.475.69,1.95,2.031,2.05,1.075.086,2.16.033,3.24.052,2.654.057,2.669.076,3.33,3.083-2.269,0-4.543.086-6.8-.038a4.227,4.227,0,0,0-4.215,2.088,9.072,9.072,0,0,1-7.036-.033C131.314,227.264,129.778,225.885,129.911,223.577Z" transform="translate(928.253 -27.859)"/><path class="k" d="M189.156,97.518a11.248,11.248,0,0,1,3.2,6.422c2.854,14.323-8.805,23.138-19.29,22.13a14.8,14.8,0,0,1-8.953-3.644l-.785-.68h0c.243-1.246-.618-2.274-.7-3.454l2.764-.238.951-.1a7.829,7.829,0,0,0,3.42.1l.951-.076a8.625,8.625,0,0,0,3.42.067l.975-.081a9.047,9.047,0,0,0,3.43.133l.951-.033,3.444.038h.951c4.02.247,3.7.233,3.706-3.392a8.564,8.564,0,0,0-.1-1.042,2.767,2.767,0,0,0-3.806-.071l-.166.062h-.209l-.171-.114a2.927,2.927,0,0,0-3.834.09l-.138.038h-.276l-.2.038c-.833-1.123-1.984-.523-3.016-.557l-13.852-.186a13.144,13.144,0,0,1,2.474-8.234l2.317,1.784,3.986-2.6c2.378-.818,4.852-.476,7.3-.476a.894.894,0,0,0,.114.518c-1.346,1.365-2.712,2.716-4.029,4.105-.476.5,0,1.5.728,1.66a1.089,1.089,0,0,0,1.194-.533c1.218-1.632,2.026-3.544,3.5-4.995.913.566,1.846,1.113,2.74,1.717.447.3.951.447,1.318.119,1.227-1.137,2.378-2.34,3.549-3.553a.661.661,0,0,0-.086-.951c-2.2-1.841-4.4-3.725-7.507-3.758a3.1,3.1,0,0,0-2.317-.775c-1.189-.076-2.379-.138-3.582-.2a5.951,5.951,0,0,1,4.043-1.322c3.268,0,6.555-.219,9.623,1.284a2.94,2.94,0,0,0,1.075.081l-.062.029A.951.951,0,0,0,189.156,97.518Z" transform="translate(911.527 35.931)"/><path class="l" d="M158.706,98.823a13.143,13.143,0,0,0-2.474,8.234c0,.281.038.557.052.832,0,.913-.057,1.831-.071,2.745a1.9,1.9,0,0,0,.818,1.774c.081,1.18.951,2.207.7,3.454-5.085-3.853-7.069-9.143-6.527-15.289.675-7.7,6.4-14.024,12.815-15.636,6.555-1.646,12.492-.39,17.6,4.148a2.507,2.507,0,0,1,1.028,1.85,3.045,3.045,0,0,1-1.075-.086c-3.068-1.5-6.355-1.284-9.623-1.284a5.951,5.951,0,0,0-4.043,1.322l-4.79,1.118a11.7,11.7,0,0,0-3.839,1.784C156.342,95.75,156.295,96.079,158.706,98.823Z" transform="translate(917.13 41.809)"/><path class="m" d="M218.251,99.04a.951.951,0,0,1-.951-.68,1.123,1.123,0,0,1,.951.68Z" transform="translate(882.431 34.409)"/><path class="m" d="M165,150.72l.775.68A.856.856,0,0,1,165,150.72Z" transform="translate(909.852 6.957)"/><path class="h" d="M177.217,180.82a9.366,9.366,0,0,1-1.427-3.3,1.451,1.451,0,0,1,.252-.989c.276-.3.661-.057.89.2a4,4,0,0,0,3.577,1.337,3.321,3.321,0,0,0,3.3-3.144c.314-2.036-.78-3.144-2.26-4.115a5.917,5.917,0,0,1,3.72.533l2.926,2.488c-.176,2.312.3,4.7-.823,6.907a4.137,4.137,0,0,0-1.965,4c.081,2.174,0,4.353-.043,6.531a9.862,9.862,0,0,1-1.066-.062c-1.732-.271-1.9-.419-1.974-1.9a38.459,38.459,0,0,1,0-3.92,2.117,2.117,0,0,0-1.9-2.5c-.576-.119-1.137-.323-1.7-.476Z" transform="translate(904.199 -3.506)"/><path class="d" d="M201,261.215a17.32,17.32,0,0,0-.633-6.608,22.31,22.31,0,0,0,7.526-4.315,20.617,20.617,0,0,0,5.556-8.843,16.174,16.174,0,0,0,6.589.695C217.538,252.348,211.1,258.613,201,261.215Z" transform="translate(891.308 -40.613)"/><path class="e" d="M234.825,199.849a1.7,1.7,0,0,1-.875-1.4A1.427,1.427,0,0,1,234.825,199.849Z" transform="translate(873.702 -18.068)"/><path class="e" d="M236.472,202.259a.847.847,0,0,1-.652-.8A.951.951,0,0,1,236.472,202.259Z" transform="translate(872.721 -19.646)"/><path class="e" d="M211.246,239.149a20.617,20.617,0,0,1-5.556,8.843,22.128,22.128,0,0,1-7.526,4.315,2.144,2.144,0,0,1-2-2.183v-7.958a2.188,2.188,0,0,1,.89-1.879c.381-.29.894-.514,1.118-.9,1.2-2.046,3.006-2.516,5.233-2.293a21.758,21.758,0,0,0,3.977,0A3.768,3.768,0,0,1,211.246,239.149Z" transform="translate(893.513 -38.302)"/><path class="e" d="M150.69,239.216a4.211,4.211,0,0,1,4.215-2.088c2.26.124,4.533.033,6.8.038a5.2,5.2,0,0,0,.951,1.1c2.816,1.865,3.182,4.6,2.892,7.649-.138,1.427,0,2.911-.067,4.362-.1,1.7-1.118,2.321-2.759,1.67C156.731,249.581,152.56,245.476,150.69,239.216Z" transform="translate(917.355 -38.34)"/><path class="e" d="M196,202.4c.024-2.179.124-4.357.043-6.531a4.091,4.091,0,0,1,1.965-4,19.175,19.175,0,0,1,12.5,11.35c.813,1.9-.043,3.377-2.141,3.473-2.426.1-4.862.033-7.288.029a1.955,1.955,0,0,1-1.655-.59C198.379,204.776,196.79,203.948,196,202.4Z" transform="translate(893.599 -14.618)"/><path class="e" d="M164.114,192l1.513,1.579c0,2.526-.067,5.052-.048,7.578a3.291,3.291,0,0,1-1.208,2.854,8.753,8.753,0,0,0-1.532,1.522,3.239,3.239,0,0,1-2.821,1.265c-2.283,0-4.567.052-6.85.086a5.594,5.594,0,0,1-2.379-2.288A19.007,19.007,0,0,1,161.7,192.652,17.294,17.294,0,0,1,164.114,192Z" transform="translate(917.302 -14.686)"/><path class="n" d="M176.38,99.328l4.79-1.118c1.194.067,2.379.128,3.582.2a3.1,3.1,0,0,1,2.317.775c0,2.031-1.132,3.758-1.517,5.708-2.445-.038-4.909-.362-7.3.476A17.2,17.2,0,0,1,176.38,99.328Z" transform="translate(903.886 34.488)"/><path class="o" d="M195.659,105.928c.385-1.9,1.527-3.653,1.518-5.708,3.111.033,5.3,1.9,7.507,3.758a.661.661,0,0,1,.086.951c-1.151,1.213-2.321,2.417-3.549,3.553-.357.328-.871.181-1.318-.119-.894-.6-1.827-1.151-2.74-1.717-.309-.98-.9-.3-1.389-.238A.9.9,0,0,1,195.659,105.928Z" transform="translate(893.778 33.434)"/><path class="p" d="M169.607,100.56a16.528,16.528,0,0,0,1.874,6l-3.986,2.6-2.317-1.784c-2.379-2.745-2.379-3.073.59-5.033A11.7,11.7,0,0,1,169.607,100.56Z" transform="translate(910.658 33.256)"/><path class="g" d="M161.942,133.083c0-.276-.033-.552-.052-.833l13.852.186a1.094,1.094,0,0,1-.166.528c-.885,1.37-.428,2.854-.381,4.305l-.975.076a10.943,10.943,0,0,0-.109-3.891.837.837,0,0,0-.547.951c.071.856.262,1.974-.828,2.088s-.2-1.489-1.142-1.86c-.409-.162.538-1.313-.538-1.194-.5.057-.366.823-.366,1.289,0,.847.071,1.694.109,2.545l-.951.076c.033-1.085.1-2.169.09-3.254,0-.7-.476-1.047-1.161-1.123-1.9-.209-2.4.2-2.459,2.107,0,.723.067,1.451.109,2.174l-.951.1c.029-1.075.086-2.15.057-3.225,0-.3-.295-.856-.414-.847-.832.071-.247.714-.357,1.089-.19.652-.419.695-.98.281a1.489,1.489,0,0,1-.685-1.127C162.984,132.873,162.389,133.035,161.942,133.083Z" transform="translate(911.483 16.641)"/><path class="q" d="M191.248,112.689c.872-.647,1.741-1,1.206.446s-2.1,3.155-3.313,4.787a1.089,1.089,0,0,1-1.194.533c-.728-.157-1.2-1.156-.728-1.66A52.378,52.378,0,0,1,191.248,112.689Z" transform="translate(898.303 27.192)"/><path class="q" d="M171.265,137.967c-.043-.723-.133-1.451-.109-2.174.057-1.9.571-2.317,2.459-2.107.69.076,1.146.423,1.161,1.123,0,1.085-.057,2.169-.09,3.254A7.829,7.829,0,0,1,171.265,137.967Zm1.841-3.144c-.133.128-.395.262-.395.395,0,.343,0,.88.209.985.362.2.666-.162.714-.547A.752.752,0,0,0,173.106,134.823Z" transform="translate(906.627 15.914)"/><path class="q" d="M161.909,133.974c.476,0,1.051-.186,1.132.476a1.489,1.489,0,0,0,.685,1.127c.561.414.79.371.98-.281.109-.376-.476-1.018.357-1.089.119,0,.409.547.414.847.029,1.075-.029,2.15-.057,3.225l-2.764.238a1.9,1.9,0,0,1-.818-1.774C161.843,135.781,161.876,134.863,161.909,133.974Z" transform="translate(911.516 15.75)"/><path class="q" d="M189.664,137.995c-.048-1.451-.5-2.935.385-4.305a2.334,2.334,0,0,1,1.708.628,12.117,12.117,0,0,0-1.137,1.341.6.6,0,0,0,.314.871,2.188,2.188,0,0,0,1.018.262c.409-.024.5-.428.476-.785,0-.476-.081-.951-.124-1.427l.9-.861.2-.038c-.114,1.484-.224,2.964-.333,4.448A8.963,8.963,0,0,1,189.664,137.995Z" transform="translate(897.004 15.891)"/><path class="g" d="M207.81,132.724a2.767,2.767,0,0,1,3.806.071c-.476,0-1.08.1-1,.694a5.284,5.284,0,0,1,.133,2.112,1.018,1.018,0,0,1-1.037.813.98.98,0,0,1-.985-.88c-.038-.695.19-1.427.162-2.1C208.852,132.833,208.267,132.819,207.81,132.724Z" transform="translate(887.407 16.771)"/><path class="q" d="M180.46,138.545c-.038-.852-.1-1.7-.109-2.545,0-.476-.138-1.232.366-1.289,1.075-.119.128,1.032.538,1.194.951.371.109,1.965,1.142,1.86s.9-1.232.828-2.088a.837.837,0,0,1,.547-.951,10.943,10.943,0,0,1,.109,3.891A8.563,8.563,0,0,1,180.46,138.545Z" transform="translate(901.813 15.355)"/><path class="g" d="M198.62,132.776a2.939,2.939,0,0,1,3.834-.09c-.59.119-1.265.186-1.127,1.047.119.7.5,1.427.071,2.1a1.227,1.227,0,0,1-.837.561,1.2,1.2,0,0,1-.89-.476c-.519-.785-.176-1.594,0-2.431C199.776,132.914,199.086,132.852,198.62,132.776Z" transform="translate(892.225 16.762)"/><path class="q" d="M207.626,133.52c.476.1,1.051.109,1.08.709.029.695-.2,1.427-.162,2.1a.98.98,0,0,0,.985.88,1.018,1.018,0,0,0,1.037-.813,5.283,5.283,0,0,0-.133-2.112c-.076-.59.5-.685,1-.695a9.627,9.627,0,0,1,.1,1.042c0,3.625.314,3.639-3.706,3.392l-.371-4.443Z" transform="translate(887.59 15.975)"/><path class="q" d="M198.458,133.505c.476.076,1.156.138,1.042.7-.167.837-.509,1.646,0,2.431a1.2,1.2,0,0,0,.89.476,1.227,1.227,0,0,0,.837-.561c.428-.685.048-1.394-.071-2.1-.138-.861.538-.951,1.127-1.047l.171.114-.357,4.462-3.444-.038-.343-4.41Z" transform="translate(892.388 16.033)"/><path class="f" d="M197.659,133.685l.342,4.41-.951.033c.109-1.484.219-2.964.333-4.448Z" transform="translate(893.048 15.891)"/><path class="f" d="M206.29,138.082l.357-4.462h.2l.371,4.443Z" transform="translate(888.204 15.922)"/><path class="r" d="M193.828,133l-.9.861a4.7,4.7,0,0,0-.566-.262,2.371,2.371,0,0,0-1.708-.628,1.142,1.142,0,0,0,.162-.528C191.844,132.48,193,131.88,193.828,133Z" transform="translate(896.404 16.606)"/><path class="g" d="M174.824,136.13a.752.752,0,0,1,.528.832c-.048.385-.352.742-.714.547-.2-.1-.214-.642-.209-.985C174.429,136.392,174.7,136.258,174.824,136.13Z" transform="translate(904.909 14.606)"/><path class="f" d="M192.915,135a4.7,4.7,0,0,1,.566.262c.043.476.114.951.124,1.427,0,.357-.086.761-.476.785a2.188,2.188,0,0,1-1.018-.262.6.6,0,0,1-.314-.871A12.119,12.119,0,0,1,192.915,135Z" transform="translate(895.846 15.199)"/></g></svg>