<svg xmlns="http://www.w3.org/2000/svg" width="179.404" height="179.426" viewBox="0 0 179.404 179.426"><defs><style>.a{fill:#fff;stroke:#fff;}.b,.c{fill:#e8e8e8;}.c{stroke:#e8e8e8;}.d{fill:#4a5757;}.e{fill:#77abb6;stroke:#77abb6;}.f,.g{fill:#92ccd7;}.g{stroke:#92ccd7;}.h,.l{fill:#f36c71;}.i{fill:#b0c3c4;stroke:#b0c3c4;}.j{fill:#e6e9e9;}.j,.k{stroke:#e6e9e9;}.k{fill:#e1e4e4;}.l{stroke:#f36c71;}</style></defs><g transform="translate(-1235.779 -85.494)"><path class="a" d="M106.526,176.433c-2.38,1.081-4.985,1.114-7.5,1.4a88.58,88.58,0,0,1-51.607-9.907C23.8,154.952,8.307,135.437,2.422,109.11c-6.4-28.66-.1-54.725,18.71-77.4C34.277,15.866,51.244,6.03,71.368,1.8A85.927,85.927,0,0,1,99.024.583a87.456,87.456,0,0,1,55.335,27.732,86.818,86.818,0,0,1,22.576,44.751,72.626,72.626,0,0,1,1.195,20c-1.638-.167-2.409-1.547-3.413-2.547Q156.52,72.357,138.371,54.2c-.686-.686-1.39-1.357-2.071-2.052a3.413,3.413,0,0,0-2.285-.952c-.476-.843-.909-1.728-1.466-2.523-1.719-2.457-3.751-4.5-6.932-4.908-.857-.747-1.933-.409-2.909-.581-.171-.728-.386-1.428-1.3-1.485-1.209-.052-2.423-.067-3.637-.071-5.323-.033-4.285-.148-4.618,4.508a2.266,2.266,0,0,0-.476.547c-3.271,8.227-3.2,16.549-.609,24.913a9.246,9.246,0,0,0,1.085,1.861c.033,1.547.038,3.1.109,4.651.052,1.147.4,1.557,1.5,1.566,2.38,0,4.761-.048,7.141-.081.9.866.786,2.009.771,3.09-.086,6.189.276,12.378-.633,18.6-.633,4.328-1.362,8.627-2.1,12.935-.386,2.233-1.533,4.432-.766,6.808a2.08,2.08,0,0,1-.262.6c-1.528-.071-2.276-1.3-3.2-2.228q-11.116-11.059-22.195-22.171c-.862-.862-1.738-1.7-2.59-2.571a3.228,3.228,0,0,0-2.295-.952c-.141-.206-.862.439-1.2,0-1.075-1.4-2.148-3.668-3.575-5.2-1.56-1.673-6-6.125-12.978-4.856,0,0,8.635-.079,8.288,0-8.066,1.831-23.448-.478-27.573,12.18-1.876,5.761-3.082,11.083-4.719,16.925-.2.7-1.323,1.52-1.033,2.039.386,1.533,1.7,2.342,2.714,3.361q27.636,27.689,55.306,55.339A10.99,10.99,0,0,1,106.526,176.433ZM93,64.554h9.46a7.364,7.364,0,0,0,1.8-.162c.509-.124.7-.614.714-1.133.024-.638-.109-1.247-.781-1.466a4.666,4.666,0,0,0-1.428-.152H83.846a4.066,4.066,0,0,0-1.428.176c-.657.248-.752.876-.719,1.509a1.014,1.014,0,0,0,.771,1.081,13.168,13.168,0,0,0,2.171.148q4.17-.014,8.36-.019ZM94.7,67.472v-.057H87.421c-.724,0-1.457,0-2.176.052a1.225,1.225,0,0,0-1.2,1.485A1.285,1.285,0,0,0,85.422,70.3h16.706a15.386,15.386,0,0,0,1.814-.1c.719-.086.952-.609,1.009-1.271.057-.89-.328-1.462-1.19-1.471-3-.029-6.032,0-9.065,0ZM94.32,47.6h8a8.127,8.127,0,0,0,1.8-.138c.7-.157.871-.757.847-1.428s-.262-1.19-.99-1.276a15.38,15.38,0,0,0-1.814-.1H86.888a14.282,14.282,0,0,0-1.809.09,1.423,1.423,0,0,0-.952,1.971,1.333,1.333,0,0,0,1.428.833C88.5,47.6,91.406,47.6,94.32,47.6ZM78.4,53.381v.029H86.46c1.19-.071,1.638-.533,1.581-1.533a1.316,1.316,0,0,0-1.4-1.343c-.367-.029-.733-.029-1.1-.033H71.254a12.377,12.377,0,0,0-1.457.057,1.39,1.39,0,0,0-1.171,1.857,1.3,1.3,0,0,0,1.357.981q4.228-.043,8.422-.038ZM63.17,73.238v-.043H57.324a21.574,21.574,0,0,0-2.547.124c-.724.09-.924.671-.924,1.333a1.182,1.182,0,0,0,.952,1.338,13.953,13.953,0,0,0,2.185.124H69.045c.609,0,1.219,0,1.823-.057a1.257,1.257,0,0,0,1.281-1.428c0-.9-.367-1.362-1.3-1.376-2.566-.067-5.123-.038-7.679-.038ZM72,70.272v.052c2.314,0,4.632.029,6.951,0,1.428,0,1.9-.509,1.823-1.642-.076-.9-.476-1.224-1.861-1.233-4.508-.029-9.022,0-13.535,0a5.24,5.24,0,0,0-.724.062,1.3,1.3,0,0,0-1.1,1.581c.076.69.438,1.176,1.138,1.185,2.438-.01,4.87-.029,7.308-.029Zm24.37-11.5h0c2.3,0,4.6.029,6.908,0,1.257,0,1.733-.476,1.671-1.371s-.557-1.357-1.709-1.476c-.362-.038-.728-.038-1.09-.043H90.511a8.149,8.149,0,0,0-1.428.081,1.428,1.428,0,0,0-1.328,1.462,1.224,1.224,0,0,0,1.357,1.333c2.4.014,4.832-.01,7.255-.01ZM61.889,58.7v.057h6.894c1.195,0,1.733-.538,1.642-1.428s-.614-1.338-1.747-1.428c-.362-.033-.728-.033-1.09-.033H56.357a11.24,11.24,0,0,0-1.428.1,1.308,1.308,0,0,0-1.066,1.6A1.133,1.133,0,0,0,55.029,58.7C57.314,58.722,59.609,58.7,61.889,58.7ZM83.908,73.252H76.967a1.1,1.1,0,0,0-1.128,1.166,1.312,1.312,0,0,0,1.1,1.59,8.393,8.393,0,0,0,1.09.076h11.7A7.617,7.617,0,0,0,90.816,76a1.3,1.3,0,0,0,1.138-1.562c-.052-.681-.386-1.176-1.109-1.185-2.295-.024-4.608,0-6.922,0ZM61.3,44.744v-.038c-2.061,0-4.118-.033-6.189,0-.952,0-1.281.476-1.281,1.376s.386,1.428,1.247,1.428c3.513.052,7.027.052,10.54.062a16.38,16.38,0,0,0,1.809-.086,1.281,1.281,0,0,0,1.119-1.562c-.048-.671-.362-1.176-1.081-1.19C65.422,44.744,63.36,44.744,61.3,44.744Zm37.134,8.527h0c1.823,0,3.642.038,5.461,0,.762,0,1.171-.724,1.085-1.585a1.133,1.133,0,0,0-1.152-1.157q-5.284-.057-10.564-.029a1.224,1.224,0,0,0-1.147.724c-.39.8.043,1.99.862,2.023,1.823.067,3.661.024,5.461.024ZM78.809,58.955h0c1.457,0,2.918.048,4.375,0,.676-.029,1.028-.552,1.085-1.238.067-.843-.367-1.552-1.143-1.566q-4.013-.071-8.027,0c-.7,0-.995.6-1.043,1.266-.067.9.324,1.542,1.1,1.576,1.219,0,2.442-.038,3.656-.038ZM59.69,53.242v-.033c1.576,0,3.156.062,4.727-.029.69-.038.952-.662.952-1.333s-.233-1.281-.952-1.29c-3.156-.052-6.313-.048-9.464-.038-.724,0-1.062.476-1.095,1.171-.048.914.328,1.509,1.133,1.538,1.542.086,3.123.033,4.7.033Zm-.328,11.207V64.4c1.7,0,3.409.052,5.108-.024.719-.038.914-.7.9-1.352s-.257-1.3-.952-1.314c-3.161-.057-6.327-.057-9.488-.024-.762,0-1.143.686-1.076,1.595a1.1,1.1,0,0,0,1.138,1.157c1.452.052,2.914.029,4.375.029ZM99.8,76.028c1.328,0,2.661.038,3.985,0,.828-.033,1.214-.586,1.195-1.476,0-.667-.252-1.252-.976-1.266-2.652-.048-5.308-.043-7.965,0-.724,0-.985.571-1.024,1.238-.048.89.348,1.471,1.162,1.509.663.029,1.354.077,2.261.081s.82-.067,1.366-.067ZM73.615,64.478v.038c1.2,0,2.409.029,3.609,0a1.09,1.09,0,0,0,1.138-1.124c.052-.847-.381-1.619-1.057-1.628q-3.775-.081-7.565-.024c-.786,0-1.157.619-1.124,1.523.024.686.324,1.185,1.038,1.209,1.333.057,2.657.024,3.975.024Zm2.571-16.944V47.6c1.081,0,2.161.029,3.242,0a1.243,1.243,0,0,0,1.323-1.357c.033-.9-.324-1.428-1.166-1.466-2.038-.052-4.075-.043-6.113-.033a1.195,1.195,0,0,0-1.314,1.333c0,.919.324,1.428,1.152,1.485.957.038,1.933-.01,2.89-.01ZM57.619,70.291a5.238,5.238,0,0,0,1.152-.1c.714-.157.857-.757.828-1.4s-.229-1.247-.952-1.276c-1.323-.048-2.657-.038-3.98.029-.538.029-.757.524-.819,1.033-.133,1.062.3,1.642,1.323,1.709.576.062,1.181.029,2.433.029Z" transform="translate(1236.31 86.013)"/><path class="b" d="M184.465,107.51a3.418,3.418,0,0,1,2.29.952c.681.7,1.385,1.366,2.071,2.052q18.158,18.177,36.349,36.325c1,1,1.776,2.38,3.414,2.547.476,3.333-.243,6.579-.752,9.8a89.174,89.174,0,0,1-60.443,71.136,31.871,31.871,0,0,1-6.665,1.766l-2.242.029-.724.609-.762.038a12.134,12.134,0,0,0-2.657-2.985l-55.33-55.339c-1.014-1.019-2.328-1.828-2.714-3.361.476.081.952.176,1.428.233,1.509.181,1.638.109,2.057-1.314.309-1.052.562-2.119.852-3.175,1.257-4.58,2.295-9.231,3.809-13.716,2.295-6.727,7.141-10.588,14.282-11.388a16.32,16.32,0,0,1,16.115,8.569,16.842,16.842,0,0,1,1.3,12.783c-1.547,5.761-3.142,11.512-4.718,17.263a20.419,20.419,0,0,0,23.918,25.5c7.812-1.714,12.9-6.541,15.377-14.082,1.024-3.118,1.757-6.332,2.623-9.522a1.744,1.744,0,0,0,1.728-1.523,17.54,17.54,0,0,0,.3-2.123c.476-.124.981-.243,1.181-.743.367-.9.69-1.819,1-2.742,4.713-14.173,6.86-28.822,7.87-43.656.324-4.727.233-9.488.3-14.235A27.641,27.641,0,0,0,184.465,107.51Z" transform="translate(1185.856 29.68)"/><path class="c" d="M181.185,196.78a3.228,3.228,0,0,1,2.295.952c.852.866,1.728,1.709,2.59,2.571q11.088,11.093,22.195,22.171c.924.924,1.671,2.157,3.2,2.228.1,1-.314,2.047.238,3.014-.866,3.294-1.595,6.632-2.623,9.874a16.615,16.615,0,0,1-31.421.8,16.969,16.969,0,0,1-.209-11.1c1.533-5.384,2.914-10.812,4.461-16.187a20.662,20.662,0,0,0-.39-13.268A10.275,10.275,0,0,1,181.185,196.78Z" transform="translate(1143.775 -17.091)"/><path class="d" d="M138.631,183.26c.1.348.19.709.319,1.047a20.662,20.662,0,0,1,.39,13.268c-1.547,5.38-2.928,10.807-4.461,16.187a17.125,17.125,0,0,0,.209,11.1,16.615,16.615,0,0,0,31.421-.8c1.028-3.242,1.757-6.579,2.623-9.874a4.133,4.133,0,0,1,3.723,1.3c-.866,3.171-1.6,6.384-2.623,9.522-2.476,7.541-7.565,12.378-15.377,14.082a20.419,20.419,0,0,1-23.918-25.5c1.576-5.751,3.171-11.5,4.718-17.263a16.786,16.786,0,0,0-1.29-12.764,16.32,16.32,0,0,0-16.115-8.569c-7.1.8-11.964,4.661-14.259,11.388-1.528,4.485-2.566,9.136-3.809,13.716-.29,1.057-.543,2.123-.852,3.175-.419,1.428-.547,1.495-2.057,1.314-.476-.057-.952-.152-1.428-.233a2.017,2.017,0,0,1-.386-1.676c1.638-5.841,2.995-11.778,4.87-17.539a20.481,20.481,0,0,1,34.5-7.617C136.422,179.233,137.326,181.37,138.631,183.26Z" transform="translate(1186.329 -3.571)"/><path class="e" d="M253.594,90.68c.976.171,2.052-.167,2.909.581,0,1.219-.038,2.433-.038,3.647a2.142,2.142,0,0,0,.7,1.6,14.9,14.9,0,0,1,4.366,11.193c-.1,8.969.652,17.943-.586,26.913-.576,4.185-1.266,8.35-1.952,12.516-1.086,6.565-2.8,13-4.489,19.429a13.806,13.806,0,0,0-.19,2.523c-1.471.248-2.809-.519-4.242-.562-.766-2.38.381-4.575.766-6.808.743-4.285,1.471-8.607,2.1-12.935.909-6.189.547-12.4.633-18.6,0-1.081.129-2.223-.771-3.09.952-1.152.714-2.533.719-3.856Q253.57,106.962,253.594,90.68Z" transform="translate(1105.425 38.497)"/><path class="f" d="M259.268,169.725a13.811,13.811,0,0,1,.19-2.523c1.685-6.432,3.4-12.854,4.489-19.429.686-4.166,1.376-8.331,1.952-12.516,1.238-8.969.476-17.943.586-26.913a14.9,14.9,0,0,0-4.366-11.193,2.142,2.142,0,0,1-.7-1.6c0-1.214.024-2.428.038-3.647,3.18.409,5.213,2.452,6.932,4.908.557.8.981,1.681,1.466,2.523a27.679,27.679,0,0,1,1.257,9.722c-.071,4.761,0,9.522-.3,14.235-1.009,14.835-3.156,29.484-7.87,43.656-.3.924-.628,1.842-1,2.742-.2.476-.709.619-1.181.743Z" transform="translate(1100.475 37.858)"/><path class="g" d="M247.256,88.958q-.038,16.272-.067,32.554c0,1.323.229,2.7-.719,3.856-2.38.033-4.761.1-7.141.081-1.095,0-1.428-.419-1.5-1.566-.071-1.552-.076-3.1-.109-4.656q.286-13.661,0-27.317c.338-4.656-.7-4.542,4.618-4.508,1.214,0,2.428,0,3.637.071C246.87,87.511,247.084,88.23,247.256,88.958Zm-8.093,29.017c0,.952-.024,1.938,0,2.909.067,2.328.229,2.485,2.476,2.557h1.09c2.785-.033,2.918-.148,2.975-2.795.024-1.328,0-2.661,0-3.994-.029-3.447-.081-3.494-3.39-3.48-3.028,0-3.1.076-3.156,2.985C239.148,116.766,239.162,117.371,239.162,117.975Z" transform="translate(1111.763 40.219)"/><path class="g" d="M182.9,132.357h-8.369a13.168,13.168,0,0,1-2.171-.148,1.014,1.014,0,0,1-.771-1.081c-.033-.633.062-1.262.719-1.509a4.066,4.066,0,0,1,1.428-.176h18.924a4.666,4.666,0,0,1,1.428.152c.671.219.8.828.781,1.466a1.051,1.051,0,0,1-.714,1.133,7.365,7.365,0,0,1-1.8.162C189.2,132.362,186.061,132.357,182.9,132.357Z" transform="translate(1146.416 18.192)"/><path class="g" d="M187.211,141.653H196.3c.862,0,1.247.581,1.19,1.471-.043.662-.29,1.185-1.009,1.271a15.387,15.387,0,0,1-1.814.1H177.961a1.285,1.285,0,0,1-1.376-1.347c-.052-.885.338-1.428,1.2-1.485.719-.057,1.452-.052,2.176-.052h7.274Z" transform="translate(1143.795 11.814)"/><path class="g" d="M186.817,96.813H178.08a1.3,1.3,0,0,1-1.428-.833,1.412,1.412,0,0,1,.952-1.971,14.282,14.282,0,0,1,1.809-.09H194.7a15.386,15.386,0,0,1,1.814.1c.728.086.952.614.99,1.276s-.148,1.247-.847,1.428a8.126,8.126,0,0,1-1.8.138h-8Z" transform="translate(1143.814 36.801)"/><path class="h" d="M234.385,96.88q.321,13.661,0,27.317a9.08,9.08,0,0,1-1.085-1.857c-2.595-8.365-2.661-16.687.609-24.913A2.267,2.267,0,0,1,234.385,96.88Z" transform="translate(1115.074 35.249)"/><path class="i" d="M153.853,108.9h-8.408a1.3,1.3,0,0,1-1.357-.981,1.39,1.39,0,0,1,1.171-1.857,12.382,12.382,0,0,1,1.457-.057H161c.367,0,.733,0,1.1.033a1.33,1.33,0,0,1,1.4,1.343c.057,1-.39,1.462-1.581,1.533-.728.043-1.462,0-2.195,0h-5.875Z" transform="translate(1160.862 30.468)"/><path class="g" d="M122.422,153.736c2.557,0,5.113-.029,7.67,0,.952,0,1.3.476,1.3,1.376a1.257,1.257,0,0,1-1.281,1.428c-.6.057-1.214.057-1.823.057H116.237a13.945,13.945,0,0,1-2.185-.124c-.69-.114-.952-.662-.952-1.338s.2-1.243.924-1.333a21.585,21.585,0,0,1,2.547-.124h5.846Z" transform="translate(1177.054 5.491)"/><path class="g" d="M141.9,144.458h-7.313c-.7,0-1.062-.476-1.138-1.185a1.3,1.3,0,0,1,1.1-1.581,5.244,5.244,0,0,1,.724-.062h13.535c1.371,0,1.785.338,1.862,1.233.1,1.133-.381,1.619-1.823,1.642-2.319.038-4.637,0-6.951,0Z" transform="translate(1166.412 11.803)"/><path class="g" d="M192.915,120.241h-7.274a1.224,1.224,0,0,1-1.357-1.333,1.428,1.428,0,0,1,1.328-1.462,8.149,8.149,0,0,1,1.428-.081h11.635a9.278,9.278,0,0,1,1.09.043c1.152.119,1.652.557,1.709,1.476s-.414,1.352-1.671,1.371c-2.3.043-4.608,0-6.908,0Z" transform="translate(1139.762 24.518)"/><path class="g" d="M121.119,120.208H114.23a1.133,1.133,0,0,1-1.166-1.128,1.308,1.308,0,0,1,1.066-1.6,11.232,11.232,0,0,1,1.428-.1h11.274c.362,0,.728,0,1.09.033,1.133.1,1.652.543,1.747,1.428s-.447,1.395-1.642,1.428c-2.295.038-4.594,0-6.894,0Z" transform="translate(1177.081 24.508)"/><path class="g" d="M167.392,153.861h6.937c.724,0,1.057.5,1.109,1.185a1.3,1.3,0,0,1-1.138,1.561,7.609,7.609,0,0,1-1.09.081h-11.7a8.383,8.383,0,0,1-1.09-.076,1.312,1.312,0,0,1-1.1-1.59,1.1,1.1,0,0,1,1.128-1.166c2.314-.029,4.627,0,6.941,0Z" transform="translate(1152.841 5.404)"/><path class="g" d="M120.576,93.945h6.189c.719,0,1.033.519,1.081,1.19a1.281,1.281,0,0,1-1.119,1.562,16.384,16.384,0,0,1-1.809.086c-3.513,0-7.027,0-10.54-.062-.862,0-1.247-.543-1.247-1.428s.352-1.357,1.281-1.376c2.061-.048,4.118,0,6.189,0Z" transform="translate(1177.038 36.812)"/><path class="i" d="M199.668,108.887c-1.819,0-3.637.052-5.456,0-.819-.033-1.252-1.224-.862-2.023a1.224,1.224,0,0,1,1.147-.724q5.284,0,10.564.029a1.133,1.133,0,0,1,1.152,1.157c.086.862-.324,1.562-1.085,1.585-1.819.057-3.637,0-5.461,0Z" transform="translate(1135.085 30.398)"/><path class="j" d="M160.313,120.688c-1.219,0-2.438.043-3.652,0-.776-.033-1.166-.676-1.1-1.576.048-.671.338-1.252,1.043-1.266q4.013-.062,8.027,0c.776,0,1.209.724,1.143,1.566-.057.686-.409,1.209-1.085,1.238-1.457.071-2.918,0-4.375,0Z" transform="translate(1154.811 24.281)"/><path class="k" d="M118.9,108.909c-1.581,0-3.161.038-4.761,0-.8-.029-1.181-.624-1.133-1.538.033-.7.371-1.166,1.095-1.171,3.152,0,6.308,0,9.464.038.733,0,.952.633.952,1.29s-.238,1.295-.952,1.333c-1.571.09-3.152.029-4.727.029Z" transform="translate(1177.106 30.366)"/><path class="g" d="M118.614,132.377H114.23a1.1,1.1,0,0,1-1.138-1.157c-.067-.909.314-1.585,1.076-1.595,3.161-.033,6.327-.033,9.488.024.709,0,.952.652.952,1.314s-.181,1.314-.9,1.352c-1.7.076-3.4.024-5.108.024Z" transform="translate(1177.062 18.105)"/><path class="k" d="M204.37,156.694c-1.2,0-2.414.038-3.623,0-.814-.038-1.209-.619-1.162-1.509.038-.667.3-1.228,1.024-1.238,2.657-.038,5.313-.043,7.965,0,.724,0,.952.6.976,1.266,0,.89-.367,1.428-1.195,1.476C207.032,156.732,205.7,156.694,204.37,156.694Z" transform="translate(1131.744 5.366)"/><path class="k" d="M149.157,132.457c-1.319,0-2.642.033-3.961,0-.714-.024-1.014-.524-1.038-1.209-.033-.9.338-1.514,1.124-1.523q3.785-.057,7.565.024c.676,0,1.109.781,1.057,1.628a1.09,1.09,0,0,1-1.138,1.124c-1.2.038-2.4,0-3.609,0Z" transform="translate(1160.783 18.054)"/><path class="k" d="M155.639,96.791c-.952,0-1.9.038-2.856,0-.828-.048-1.171-.567-1.152-1.485a1.195,1.195,0,0,1,1.314-1.333c2.038,0,4.075,0,6.113.033.843,0,1.2.567,1.166,1.466a1.243,1.243,0,0,1-1.324,1.357c-1.081.038-2.161,0-3.242,0Z" transform="translate(1156.872 36.776)"/><path class="l" d="M254.254,254.752l1.49.7a17.549,17.549,0,0,1-.3,2.123,1.753,1.753,0,0,1-1.728,1.524,4.132,4.132,0,0,0-3.723-1.3c-.552-.952-.133-2.014-.238-3.014a2.081,2.081,0,0,0,.262-.6C251.445,254.233,252.783,255,254.254,254.752Z" transform="translate(1105.489 -47.169)"/><path class="k" d="M116.8,144.618c-1.257,0-1.861.033-2.466,0-1.024-.067-1.457-.647-1.323-1.709.062-.509.281-1,.819-1.033,1.323-.067,2.657-.076,3.98-.029.743.029.952.628.952,1.276s-.114,1.243-.828,1.4A5.238,5.238,0,0,1,116.8,144.618Z" transform="translate(1177.111 11.705)"/><path class="e" d="M240.74,146.349v-1.814c.057-2.909.129-2.971,3.156-2.985,3.333,0,3.361.033,3.39,3.48,0,1.333.024,2.666,0,3.994-.057,2.647-.19,2.761-2.975,2.795h-1.09c-2.247-.071-2.409-.228-2.476-2.557C240.716,148.287,240.74,147.32,240.74,146.349Z" transform="translate(1110.186 11.845)"/></g></svg>